<svg width="1582" height="1437" viewBox="0 0 1582 1437" fill="none" xmlns="http://www.w3.org/2000/svg">
<g opacity="0.5" filter="url(#filter0_d_0_476)">
<g opacity="0.7">
<rect x="4.00012" width="1573.9" height="714.204" rx="15" fill="url(#paint0_linear_0_476)"/>
<path d="M1123.55 43.9713C1123.31 35.6903 1130.05 28.9393 1138.34 28.9393H1537.1C1545.38 28.9393 1552.1 35.655 1552.1 43.9393V486.155C1552.1 494.439 1545.35 501.184 1537.07 500.87C1311.7 492.322 1130.6 292.204 1123.55 43.9713Z" fill="url(#paint1_linear_0_476)"/>
<path d="M540.091 698.661C540.286 706.948 533.551 713.716 525.262 713.716H19.1405C10.8562 713.716 4.1405 707 4.1405 698.716V138.383C4.1405 130.098 10.8973 123.359 19.1777 123.61C303.755 132.239 532.741 385.031 540.091 698.661Z" fill="url(#paint2_linear_0_476)"/>
<path d="M1551 1379.55C1551 1387.83 1544.28 1394.55 1536 1394.55H43.0001C34.7158 1394.55 28.0001 1387.83 28.0001 1379.55V43.1724C28.0001 34.8881 34.7159 28.1724 43.0001 28.1724H1536C1544.28 28.1724 1551 34.8882 1551 43.1724V1379.55ZM29.2285 1376.38C29.2285 1384.66 35.9443 1391.38 44.2285 1391.38H1534.77C1543.06 1391.38 1549.77 1384.66 1549.77 1376.38V46.3415C1549.77 38.0572 1543.06 31.3415 1534.77 31.3415H44.2286C35.9443 31.3415 29.2285 38.0572 29.2285 46.3415V1376.38Z" fill="#1F1F1F" fill-opacity="0.5"/>
<path d="M5.78114 32.2453C4.96411 32.1626 4.24597 32.8957 4.24597 33.7169V33.7169C4.24597 34.4272 4.78928 34.9223 5.49706 34.9822C8.02852 35.1963 10.56 35.384 13.0914 35.384C29.5538 35.384 46.2619 30.0382 62.97 17.0554C68.3732 12.8009 73.5863 7.95555 78.7766 2.51927C79.5948 1.6623 78.9824 0.254204 77.7975 0.254204V0.254204C77.4291 0.254204 77.0765 0.404064 76.8203 0.668822C71.7938 5.86294 66.7614 10.7967 61.4957 14.7643C43.0876 29.3776 24.2144 34.1104 5.78114 32.2453Z" fill="white" fill-opacity="0.5"/>
<path d="M61.4957 50.6578C42.7995 65.3096 24.1032 70.0287 5.63507 68.3602C4.8927 68.2932 4.24597 68.7754 4.24597 69.5208V69.5208C4.24597 70.1713 4.74352 70.8117 5.3917 70.8667C7.96204 71.0845 10.5565 71.2775 13.3371 71.2775C29.7995 71.2775 46.5076 65.9316 62.97 52.9489C78.4351 40.8703 92.7483 23.3018 106.356 2.32355C106.935 1.43036 106.268 0.254204 105.204 0.254204V0.254204C104.747 0.254204 104.344 0.487144 104.095 0.870223C90.6997 21.474 76.5795 38.8112 61.4957 50.6578Z" fill="white" fill-opacity="0.5"/>
<path d="M694.438 48.1122C728.085 46.3692 749.508 28.0642 764.685 2.01191C765.14 1.23035 764.493 0.254204 763.588 0.254204V0.254204C763.168 0.254204 762.859 0.479638 762.646 0.841851C747.69 26.2363 727.355 43.7963 694.438 45.312C660.929 47.0858 628.394 26.6612 599.014 0.611354C598.755 0.38171 598.4 0.254204 598.054 0.254204V0.254204C596.765 0.254204 596.173 1.83605 597.134 2.69636C625.693 28.2741 657.638 48.3667 690.507 48.3667C691.735 48.3667 692.964 48.3667 694.438 48.1122Z" fill="white" fill-opacity="0.5"/>
<path d="M61.4957 77.6416C42.8952 91.9712 24.2947 96.7096 5.91888 95.1146C5.02461 95.0369 4.24597 95.735 4.24597 96.6326V96.6326C4.24597 97.4115 4.83842 98.0634 5.61405 98.1342C7.867 98.3398 10.1486 98.5158 12.6 98.5158C29.3081 98.5158 46.0162 93.1699 62.97 80.1872C84.4237 63.4545 104.222 35.2061 123.525 2.17262C124.022 1.32296 123.409 0.254204 122.425 0.254204V0.254204C121.972 0.254204 121.552 0.496079 121.323 0.886578C102.036 33.7041 82.7359 61.4534 61.4957 77.6416Z" fill="white" fill-opacity="0.5"/>
<path d="M690.506 109.207C745.967 106.687 772.048 58.01 791.875 1.95507C792.168 1.12591 791.572 0.254204 790.692 0.254204V0.254204C790.151 0.254204 789.65 0.59847 789.469 1.10832C769.375 57.741 744.534 103.874 690.26 106.407C636.892 108.69 584.986 47.2904 548.397 0.765286C548.141 0.439538 547.73 0.254204 547.316 0.254204V0.254204C546.188 0.254204 545.57 1.5416 546.269 2.42665C583.296 49.3027 636.067 111.714 690.506 109.207Z" fill="white" fill-opacity="0.5"/>
<path d="M61.25 99.7886C42.8391 113.661 24.1954 118.373 5.77196 116.974C4.95283 116.912 4.24597 117.652 4.24597 118.473V118.473C4.24597 119.193 4.79312 119.697 5.50917 119.764C7.7304 119.973 9.83236 120.154 12.1086 120.154C28.8167 120.154 45.7705 114.808 62.7243 102.08C88.8705 82.5156 112.631 44.9109 136.827 2.17091C137.311 1.31596 136.695 0.254204 135.712 0.254204V0.254204C135.249 0.254204 134.821 0.505829 134.593 0.909584C110.639 43.403 86.9174 80.5406 61.25 99.7886Z" fill="white" fill-opacity="0.5"/>
<path d="M1433.77 58.8039C1452.85 44.4755 1470.07 24.6331 1486.57 2.30128C1487.19 1.45253 1486.56 0.254204 1485.51 0.254204V0.254204C1485.1 0.254204 1484.73 0.450709 1484.49 0.781912C1468.38 22.7166 1451.07 42.3705 1432.54 56.5128C1389.79 89.0969 1345.07 89.8606 1291.51 59.5675C1261.66 42.5892 1233.29 22.0792 1205.88 0.548711C1205.64 0.357951 1205.34 0.254204 1205.03 0.254204V0.254204C1203.73 0.254204 1203.15 1.89671 1204.18 2.70522C1231.72 24.4683 1260.2 45.1828 1290.28 62.1132C1343.84 92.6608 1390.77 91.6426 1433.77 58.8039Z" fill="white" fill-opacity="0.5"/>
<path d="M61.2501 121.172C42.8413 134.548 24.1999 139.247 5.77856 137.849C4.95595 137.787 4.24609 138.53 4.24609 139.354V139.354C4.24609 140.072 4.78817 140.577 5.50362 140.628C7.54151 140.774 9.57941 140.774 11.6173 140.774C28.5711 140.774 45.5249 135.682 62.4787 123.209C92.5751 101.08 120.514 53.615 149.847 1.91506C150.331 1.06139 149.716 0 148.735 0V0C148.272 0 147.844 0.251392 147.617 0.655337C118.754 52.0786 90.855 99.3724 61.2501 121.172Z" fill="white" fill-opacity="0.5"/>
<path d="M1409.69 144.338C1461.52 129.464 1498.41 67.4044 1532.53 2.16867C1532.98 1.29802 1532.35 0.254564 1531.37 0.254564V0.254564C1530.88 0.254564 1530.44 0.52434 1530.21 0.954241C1496.16 65.6123 1459.88 127.079 1408.95 141.537C1379.47 149.938 1347.53 142.556 1311.41 118.627C1261.43 85.6335 1216.35 42.5193 1172.73 0.383567C1172.48 0.137337 1172.16 0 1171.81 0V0C1170.58 0 1169.95 1.49404 1170.83 2.34822C1214.55 44.6287 1259.76 87.9264 1309.93 120.918C1347.03 145.61 1379.47 152.993 1409.69 144.338Z" fill="white" fill-opacity="0.5"/>
<path d="M536.939 41.7481C572.812 93.4245 626.622 171.066 684.117 171.066C684.854 171.066 685.592 171.066 686.329 171.066C759.549 168.521 787.806 84.0056 815.325 2.29071C815.391 2.08588 815.457 1.89936 815.523 1.72134C815.791 0.996724 815.271 0.254204 814.499 0.254204C814.421 0.254204 814.342 0.254204 814.263 0.254204C813.764 0.254204 813.218 0.661426 813.127 1.15215V1.15215C813.109 1.2478 813.098 1.31941 813.067 1.41171C786.053 82.3194 757.789 165.722 686.574 168.266C629.325 170.303 575.023 91.8971 539.15 39.9661C533.745 32.0747 528.339 24.4378 523.671 18.0737C519.625 12.6493 515.579 6.74722 511.533 0.830175C511.287 0.469752 510.902 0.254204 510.465 0.254204V0.254204C509.404 0.254204 508.752 1.4412 509.352 2.31705C513.549 8.4517 517.726 14.3597 521.705 19.8556C526.373 26.2197 531.533 33.8566 536.939 41.7481Z" fill="white" fill-opacity="0.5"/>
<path d="M61.2501 145.61C42.8332 158.992 24.1835 163.448 5.75426 162.266C4.94129 162.214 4.24609 162.952 4.24609 163.766V163.766C4.24609 164.494 4.80499 165.003 5.53085 165.05C24.2891 166.275 43.5013 161.59 62.4787 147.901C93.4378 125.754 123.168 74.8417 154.373 21.1288C158.175 14.873 161.773 8.4063 165.538 1.92067C166.033 1.06929 165.42 0 164.435 0V0C163.986 0 163.569 0.236849 163.34 0.623742C159.547 7.03424 155.97 13.4372 152.162 19.6014C121.203 73.3143 91.7178 123.718 61.2501 145.61Z" fill="white" fill-opacity="0.5"/>
<path d="M1327.13 178.449C1400.35 232.162 1444.34 221.979 1495.93 138.737C1515.34 107.426 1530.82 71.2775 1545.81 36.4022C1550.7 25.0677 1555.59 13.5048 1560.69 2.1462C1561.08 1.25861 1560.44 0.254204 1559.46 0.254204V0.254204C1558.93 0.254204 1558.45 0.567876 1558.24 1.05362C1553.19 12.4859 1548.16 23.6861 1543.36 35.1294C1528.37 70.0047 1512.89 105.898 1493.72 136.955C1442.86 219.434 1401.09 229.362 1328.61 175.903C1275.53 136.7 1228.6 86.0422 1183.39 37.1659C1172.22 25.0865 1160.81 12.7583 1149.39 0.67323C1149.14 0.405678 1148.79 0.254204 1148.42 0.254204V0.254204C1147.24 0.254204 1146.64 1.65951 1147.45 2.51356C1159.02 14.7694 1170.56 27.2118 1181.67 39.2024C1226.88 88.3332 1273.81 138.991 1327.13 178.449Z" fill="white" fill-opacity="0.5"/>
<path d="M520.231 66.1869C524.654 73.0601 529.814 81.2062 535.22 89.8613C570.356 145.865 622.937 230.126 681.415 230.126C681.907 230.126 682.398 230.126 682.89 230.126C742.842 228.599 778.47 143.829 802.303 87.5703C805.006 81.4607 807.217 75.6058 809.674 70.5145C815.571 57.2772 821.223 42.2579 827.365 26.475C830.348 18.6318 833.544 10.3448 836.755 2.23559C837.082 1.40772 836.384 0.509468 835.493 0.509468V0.509468C834.982 0.509468 834.61 0.818682 834.417 1.29241C831.098 9.43179 828.011 17.5637 825.154 25.4567C819.011 41.2397 813.36 56.2589 807.463 69.4962C805.252 74.8421 802.795 80.4425 800.092 86.552C776.75 142.047 741.368 226.053 683.135 227.326C682.644 227.326 682.153 227.326 681.661 227.326C624.411 227.326 572.076 143.829 537.431 88.3339C532.025 79.6788 526.866 71.2782 522.443 64.6595C513.106 50.6585 503.523 34.621 493.204 17.3107C490.136 11.9315 486.841 6.55229 483.537 1.1731C483.284 0.760736 482.891 0.509468 482.407 0.509468V0.509468C481.335 0.509468 480.61 1.67065 481.156 2.59394C484.477 8.21044 487.93 13.6251 490.992 18.8381C501.066 35.8938 510.895 52.1859 520.231 66.1869Z" fill="white" fill-opacity="0.5"/>
<path d="M61.0043 177.685C42.5958 190.813 24.1872 195.264 5.77864 194.088C4.9525 194.035 4.24597 194.783 4.24597 195.611V195.611C4.24597 196.331 4.78589 196.842 5.50407 196.895C7.36415 197.032 9.32631 197.032 11.1258 197.032C28.0796 197.032 45.2791 191.941 62.4786 179.976C93.1919 158.338 122.922 108.189 154.373 54.9854C164.772 37.6 175.399 19.7436 186.471 2.32236C187.04 1.42681 186.374 0.254204 185.313 0.254204V0.254204C184.852 0.254204 184.446 0.491043 184.2 0.881853C173.281 18.2495 162.601 36.1053 152.162 53.7126C120.957 106.407 91.2263 156.302 61.0043 177.685Z" fill="white" fill-opacity="0.5"/>
<path d="M519.248 111.244C523.671 118.372 528.585 126.772 533.99 135.937C568.389 194.486 619.988 282.565 679.695 282.565C680.186 282.565 680.677 282.565 681.169 282.565C741.613 281.293 779.452 193.213 804.268 134.918C807.462 127.536 810.411 120.663 813.114 114.553C819.502 100.298 825.89 84.0057 832.524 66.6953C840.64 46.1704 849.45 23.7238 859.182 2.15563C859.584 1.26464 858.934 0.254204 857.956 0.254204V0.254204C857.431 0.254204 856.955 0.559454 856.736 1.03643C846.811 22.6859 838.079 45.0514 830.067 65.6771C823.433 82.9874 817.045 99.2795 810.656 113.28C807.954 119.39 805.005 126.263 801.811 133.646C777.24 191.177 739.893 278.492 680.923 279.765C680.432 279.765 679.94 279.765 679.695 279.765C621.462 279.765 570.109 192.45 536.202 134.409C530.796 125.245 525.882 116.844 521.459 109.717C512.614 95.461 503.031 78.4053 492.957 60.5858C482.261 41.4442 470.843 21.0567 458.465 1.14911C458.218 0.75076 457.836 0.508767 457.367 0.508767V0.508767C456.303 0.508767 455.597 1.67806 456.155 2.58466C468.455 22.5599 480.06 43.1688 490.746 62.1132C500.82 79.9326 510.402 96.7338 519.248 111.244Z" fill="white" fill-opacity="0.5"/>
<path d="M1191.75 82.4783C1236.71 134.918 1283.4 188.886 1337.21 230.889C1374.06 259.655 1403.06 270.346 1428.61 264.491C1454.9 258.636 1478.24 235.726 1503.8 190.413C1522.22 158.084 1536.23 120.663 1549.74 84.5148C1558.31 61.4385 1567.12 38.1097 1577.39 15.5348C1577.47 15.3625 1577.51 15.1855 1577.51 14.9963V14.9963C1577.51 13.5747 1575.59 13.1497 1575.01 14.4482C1564.99 36.929 1556.16 60.2128 1547.53 83.4965C1534.02 119.645 1520.01 156.811 1501.83 188.886C1476.52 233.689 1453.67 256.091 1428.12 261.691C1403.3 267.291 1374.8 256.6 1338.68 228.343C1285.12 186.595 1238.68 132.627 1193.71 80.4418C1172.83 56.2582 1151.21 31.311 1129.34 7.89111C1127.24 5.48052 1124.93 3.06992 1122.6 0.659321C1122.35 0.400408 1122.01 0.254204 1121.65 0.254204V0.254204C1120.48 0.254204 1119.88 1.6641 1120.68 2.5187C1123.06 5.06193 1125.29 7.57056 1127.37 9.92762C1149.49 33.3475 1170.86 58.2947 1191.75 82.4783Z" fill="white" fill-opacity="0.5"/>
<path d="M61.0043 218.924C42.5958 232.052 24.1872 236.744 5.77869 235.581C4.95251 235.529 4.24597 236.277 4.24597 237.105V237.105C4.24597 237.825 4.78585 238.336 5.50394 238.39C7.29598 238.526 9.08802 238.526 10.8801 238.526C27.8339 238.526 45.2791 233.435 62.4786 221.215C91.2263 200.85 120.711 151.974 152.162 100.043C172.3 67.0078 193.608 32.0337 215.858 2.45139C216.537 1.54787 215.917 0.254204 214.786 0.254204V0.254204C214.356 0.254204 213.929 0.455137 213.671 0.799328C191.46 30.4663 170.22 65.3712 149.95 98.5158C118.745 150.192 89.2606 198.814 61.0043 218.924Z" fill="white" fill-opacity="0.5"/>
<path d="M1117.79 38.4388C1121.97 43.2755 1126.14 47.8576 1129.83 51.9306C1150.22 74.5868 1170.62 98.7703 1190.27 122.19C1235.98 176.667 1283.15 232.925 1338.19 275.947C1374.8 304.712 1404.04 315.404 1429.84 309.549C1456.37 303.694 1479.72 280.529 1505.27 234.962C1523.45 202.378 1537.46 164.448 1550.73 127.791C1559.05 104.715 1567.61 81.3863 1577.39 59.0633C1577.47 58.8921 1577.51 58.6978 1577.51 58.5109V58.5109C1577.51 57.0526 1575.53 56.6446 1574.95 57.9818C1565.21 80.3812 1556.64 103.557 1548.27 126.518C1535 162.92 1521.24 200.596 1503.06 233.18C1478.24 277.474 1454.9 300.639 1429.35 306.494C1404.28 312.095 1375.78 301.658 1339.66 273.401C1284.87 230.634 1237.7 174.376 1192.24 119.899C1172.58 96.4793 1152.44 72.2957 1131.8 49.6396C1128.11 45.5665 1123.93 40.9844 1119.76 36.1477C1110.03 25.5683 1098.86 13.2442 1086.73 0.655206C1086.48 0.399132 1086.14 0.254204 1085.78 0.254204V0.254204C1084.62 0.254204 1084.03 1.65768 1084.84 2.49161C1096.78 14.778 1107.83 27.4001 1117.79 38.4388Z" fill="white" fill-opacity="0.5"/>
<path d="M518.757 154.265C522.934 161.138 528.094 169.539 533.253 178.449C567.407 236.998 619.005 325.077 678.712 325.077C679.203 325.077 679.941 325.077 680.432 325.077C739.893 323.55 778.223 236.235 803.777 178.449C807.217 170.557 810.411 163.175 813.359 156.811C819.994 142.301 826.873 125.754 833.999 108.189C847.952 73.7951 863.788 34.7647 883.585 2.32656C884.138 1.41979 883.565 0.254204 882.503 0.254204V0.254204C882.032 0.254204 881.517 0.497416 881.271 0.899526C861.309 33.609 845.456 72.7768 831.542 107.171C824.416 124.736 817.782 141.282 811.148 155.793C808.2 162.157 805.005 169.539 801.566 177.431C776.503 234.453 738.419 320.75 680.432 322.532C621.708 324.314 569.864 235.726 535.465 177.176C530.305 168.266 525.391 159.866 520.968 152.738C511.877 137.973 502.54 121.427 492.466 103.862C472.923 69.441 451.923 32.5041 428.499 0.806343C428.242 0.458208 427.812 0.254204 427.379 0.254204V0.254204C426.249 0.254204 425.629 1.54649 426.306 2.45086C449.947 34.0413 470.805 70.8035 490.255 105.134C500.329 122.954 509.666 139.501 518.757 154.265Z" fill="white" fill-opacity="0.5"/>
<path d="M488.535 148.665C498.363 165.211 507.7 180.994 516.791 194.995C520.968 201.614 525.882 209.506 531.042 217.906C565.441 273.656 617.285 357.916 675.764 357.916C676.255 357.916 676.746 357.916 677.238 357.916C735.962 356.389 776.995 271.874 804.023 216.124C807.708 208.487 811.148 201.105 814.588 194.741C821.714 180.485 829.085 164.193 836.702 147.137C860.441 94.4698 886.754 35.7409 924.32 2.89301C925.256 2.07483 924.633 0.508767 923.39 0.508767V0.508767C923.072 0.508767 922.814 0.621578 922.574 0.830418C884.443 33.9837 858.002 92.8328 834.49 145.865C826.873 162.92 819.502 179.212 812.377 193.468C809.183 199.832 805.497 207.214 801.811 214.851C775.029 270.092 734.488 353.843 677.238 355.116C676.746 355.116 676.255 355.116 675.764 355.116C618.514 355.116 567.161 271.874 533.008 216.379C527.848 207.978 522.934 200.087 518.757 193.468C509.666 179.467 500.329 163.684 490.5 147.137C458.646 93.8254 423.37 34.6905 379.069 0.534974C378.831 0.351844 378.565 0.254204 378.265 0.254204V0.254204C376.944 0.254204 376.357 1.95903 377.408 2.75945C421.533 36.3524 456.903 95.5352 488.535 148.665Z" fill="white" fill-opacity="0.5"/>
<path d="M150.687 144.592C119.237 194.995 89.7521 242.599 61.0043 262.455C42.594 275.336 23.9511 279.78 5.75469 278.603C4.94164 278.55 4.24597 279.288 4.24597 280.102V280.102C4.24597 280.829 4.80468 281.338 5.53013 281.386C24.2781 282.611 43.2609 277.936 62.4786 264.746C91.472 244.635 121.203 196.777 152.653 146.119C186.122 92.1252 222.382 34.0345 262.111 2.79631C263.162 1.97058 262.624 0.254204 261.288 0.254204V0.254204C260.977 0.254204 260.634 0.356691 260.39 0.550281C220.487 32.1852 184.244 90.5388 150.687 144.592Z" fill="white" fill-opacity="0.5"/>
<path d="M1121.97 81.46C1126.64 86.5513 1130.81 91.6426 1134.99 95.9701C1156.12 119.39 1177.01 144.846 1197.15 169.284C1240.64 222.234 1285.85 277.22 1338.93 319.223C1375.05 347.734 1403.79 358.425 1429.59 352.825C1456.37 346.97 1480.21 323.805 1506.5 277.474C1525.17 244.381 1539.67 206.196 1553.67 169.284C1561.26 149.007 1569.09 128.476 1577.64 108.699C1577.72 108.53 1577.75 108.34 1577.75 108.156V108.156C1577.75 106.707 1575.79 106.305 1575.22 107.637C1566.68 127.5 1559.05 148.094 1551.22 168.266C1537.21 205.178 1522.96 243.108 1504.29 275.947C1478.24 321.514 1455.15 344.424 1428.86 350.025C1403.79 355.371 1375.54 344.933 1340.16 316.931C1287.33 275.183 1242.36 220.452 1198.87 167.503C1178.73 143.064 1157.84 117.608 1136.71 93.9336C1132.78 89.3515 1128.36 84.5148 1123.69 79.4235C1101.41 54.0643 1073.29 22.1369 1042.71 0.502409C1042.48 0.340206 1042.19 0.254204 1041.91 0.254204V0.254204C1040.56 0.254204 1040.04 2.01462 1041.14 2.78794C1071.66 24.2069 1099.76 56.0094 1121.97 81.46Z" fill="white" fill-opacity="0.5"/>
<path d="M1506.5 317.697C1479.23 364.536 1455.15 387.956 1428.61 393.302C1403.79 398.393 1376.03 387.956 1341.88 360.209C1290.28 318.715 1246.79 263.984 1204.77 211.289C1185.36 186.851 1165.21 161.649 1144.57 138.229C1140.89 133.902 1136.96 129.32 1132.78 124.483C1089.04 73.5701 1023.19 -3.05358 956.852 28.5123C905.008 53.205 869.872 121.428 839.159 181.505C830.805 197.797 822.696 213.326 814.834 227.072C811.394 233.181 807.462 240.055 803.531 247.437C774.538 300.132 730.802 379.556 673.061 380.574C672.569 380.574 672.324 380.574 671.832 380.574C614.828 380.574 563.967 303.95 530.059 253.037C525.145 245.655 520.477 238.527 516.3 232.418C507.454 219.69 498.363 205.18 488.535 189.906C453.153 134.156 408.926 64.6604 355.607 41.7496C271.821 5.60158 209.166 103.609 153.882 189.906C122.185 239.291 92.4548 285.876 61.0043 306.75C42.3138 319.163 23.8569 323.587 5.63378 322.145C4.88919 322.086 4.24597 322.676 4.24597 323.423V323.423C4.24597 324.077 4.74288 324.618 5.39414 324.67C23.96 326.173 43.2143 321.762 62.2328 309.041C94.1748 287.658 124.151 241.073 155.847 191.433C213.343 101.827 272.558 9.16547 354.133 44.2953C406.714 66.9514 450.45 136.193 485.832 191.688C495.66 206.961 504.751 221.726 513.597 234.454C517.774 240.564 522.442 247.437 527.356 254.819C561.755 306.496 613.845 384.647 672.569 383.629C731.785 382.356 776.012 302.168 805.251 248.964C809.182 241.582 813.114 234.709 816.554 228.599C824.416 214.853 832.525 199.325 840.879 183.032C871.592 123.21 906.482 55.4961 957.344 31.3125C1021.96 0.510306 1087.08 76.3703 1130.32 126.774C1134.5 131.611 1138.43 136.193 1142.12 140.52C1162.75 163.94 1182.66 189.142 1202.31 213.58C1244.58 266.529 1288.07 321.006 1339.91 362.754C1368.9 386.174 1393.47 397.63 1415.83 397.63C1420.26 397.63 1424.43 397.121 1428.61 396.357C1455.88 390.756 1480.45 367.082 1508.22 319.479C1527.88 285.876 1543.11 247.182 1557.85 209.507C1564.21 193.549 1570.57 177.339 1577.16 161.379C1577.23 161.221 1577.26 161.042 1577.26 160.871V160.871C1577.26 159.454 1575.33 159.071 1574.78 160.377C1568.09 176.291 1561.74 192.364 1555.39 208.234C1541.14 245.655 1525.91 284.349 1506.5 317.697Z" fill="white" fill-opacity="0.5"/>
<path d="M1508.96 358.934C1479.96 407.556 1454.9 431.485 1427.87 436.576C1403.55 441.159 1375.78 430.467 1343.6 403.738C1293.47 362.244 1251.7 308.022 1211.16 255.582C1192.49 231.398 1173.07 206.196 1153.17 182.776C1149.73 178.958 1146.29 174.63 1142.85 170.303C1098.13 116.844 1037.2 43.7847 969.138 72.5504C916.065 94.952 877.735 159.611 843.827 216.379C834.49 231.907 825.89 246.417 817.291 259.655C813.359 265.51 809.428 271.874 805.251 278.492C771.835 330.932 726.133 402.719 667.164 403.738C609.668 404.501 560.527 337.551 524.654 288.42C520.231 282.311 516.054 276.456 511.877 271.11C503.277 259.655 494.186 246.672 484.603 233.18C447.502 179.722 405.24 119.136 353.15 99.025C269.61 66.95 211.623 153.756 155.356 237.508C123.659 285.111 93.4375 329.914 60.5128 350.788C41.8254 362.703 23.3716 366.388 5.37926 364.913C4.63959 364.852 4.00012 365.437 4.00012 366.18V366.18C4.00012 366.835 4.5039 367.376 5.15749 367.427C7.96589 367.647 10.7743 367.844 13.5827 367.844C29.308 367.844 45.5246 363.517 61.7413 353.334C95.4032 332.205 125.625 287.148 157.567 239.29C213.097 156.047 270.838 70.2593 352.413 101.571C403.766 121.427 445.536 181.504 482.638 234.707C492.22 248.454 501.066 261.437 509.911 272.892C513.842 278.238 518.265 284.093 522.688 289.948C558.807 339.079 607.948 406.283 666.181 406.283C666.672 406.283 666.918 406.283 667.409 406.283C727.608 405.265 773.801 332.714 807.462 279.765C811.639 273.147 815.816 266.782 819.502 260.927C828.102 247.945 836.947 233.18 846.038 217.652C879.7 161.139 917.785 96.9885 970.121 74.8414C1036.46 46.8394 1096.91 119.136 1141.13 171.83C1144.82 176.158 1148.26 180.231 1151.45 184.304C1171.35 207.724 1190.52 232.671 1209.19 256.854C1249.74 309.549 1291.51 363.771 1341.88 405.265C1369.89 428.43 1394.21 439.631 1416.32 439.631C1420.26 439.631 1424.19 439.377 1428.12 438.613C1455.88 433.267 1481.44 408.829 1510.92 359.698C1531.32 325.587 1547.53 286.129 1563.26 247.945C1567.89 236.824 1572.53 225.452 1577.4 214.079C1577.47 213.917 1577.51 213.733 1577.51 213.557V213.557C1577.51 212.144 1575.58 211.759 1575.03 213.062C1570.27 224.345 1565.66 235.601 1561.05 246.672C1545.57 285.62 1529.35 325.077 1508.96 358.934Z" fill="white" fill-opacity="0.5"/>
<path d="M1511.41 400.43C1480.45 451.088 1455.15 475.017 1427.38 479.854C1403.06 484.181 1376.27 473.49 1345.32 447.27C1296.67 406.03 1256.37 352.063 1217.55 299.877C1199.61 275.694 1180.94 250.746 1161.77 227.581C1158.82 224.017 1155.88 220.453 1152.93 216.635C1109.68 163.431 1050.71 90.8804 980.932 117.1C926.876 137.466 885.352 198.306 848.741 252.274C838.667 267.038 829.33 280.785 819.993 293.259C816.062 298.604 811.639 304.459 807.462 310.569C771.589 359.954 722.448 427.414 662.249 428.432C587.554 429.705 537.43 358.681 488.78 290.204C448.73 233.691 407.451 175.141 351.921 156.303C268.381 128.047 212.114 208.234 157.567 286.131C125.625 331.952 95.1575 374.973 60.5128 395.593C41.6077 406.75 23.1689 410.18 5.42312 408.47C4.66361 408.396 4.00012 408.997 4.00012 409.76V409.76C4.00012 410.399 4.47143 410.933 5.10552 411.012C8.42266 411.424 11.7398 411.631 15.0569 411.631C30.2908 411.631 46.016 407.558 61.7413 398.393C96.8774 377.519 127.345 333.989 159.533 288.167C213.588 211.034 269.364 131.611 350.939 159.358C405.486 177.941 446.764 235.982 486.569 292.24C534.973 360.718 585.097 431.487 660.284 431.487C661.021 431.487 661.512 431.487 662.249 431.487C689.523 430.977 716.551 417.74 745.053 390.502C769.378 367.337 790.754 338.062 809.428 312.351C813.851 306.241 818.028 300.641 821.959 295.04C831.296 282.567 840.633 268.566 850.707 254.056C887.071 200.597 928.596 140.011 981.669 119.901C1049.73 94.1897 1108.21 166.231 1150.72 218.671C1153.66 222.49 1156.61 226.054 1159.56 229.618C1178.73 252.783 1197.15 277.73 1215.09 301.914C1254.16 354.354 1294.45 408.321 1343.35 449.815C1370.38 472.726 1394.46 483.927 1416.32 483.927C1420.01 483.927 1423.7 483.672 1427.38 482.908C1456.13 477.817 1481.68 453.634 1513.13 402.212C1534.51 367.337 1551.46 327.37 1567.93 288.422C1570.84 281.381 1573.99 274.341 1576.91 267.545C1576.98 267.379 1577.02 267.19 1577.02 267.009V267.009C1577.02 265.563 1575.05 265.162 1574.48 266.49C1571.48 273.451 1568.6 280.378 1565.71 287.149C1549.74 325.843 1532.79 365.809 1511.41 400.43Z" fill="white" fill-opacity="0.5"/>
<path d="M1513.13 442.431C1480.95 494.362 1455.15 518.546 1426.89 523.128C1402.81 527.201 1376.52 516.509 1346.3 490.544C1298.63 449.559 1259.81 395.846 1222.22 343.66C1204.77 319.477 1186.83 294.784 1168.41 271.619C1165.95 268.564 1163.49 265.509 1160.79 262.2C1118.53 209.251 1060.79 136.445 990.023 161.138C930.316 182.012 885.843 245.144 842.844 306.494C791.246 380.063 737.927 455.923 658.318 457.196C585.835 458.469 535.71 394.064 487.06 331.95C446.764 280.274 405.24 227.07 350.693 210.269C267.644 184.558 212.36 260.163 158.796 333.478C126.608 377.517 96.1403 419.266 60.5128 439.631C41.6596 450.263 23.2701 453.69 5.56924 451.546C4.7393 451.445 4.00012 452.185 4.00012 453.021V453.021C4.00012 453.716 4.5187 454.206 5.20987 454.281C23.5015 456.286 42.2686 452.881 61.7413 441.922C97.8602 421.302 128.574 379.299 161.007 335.005C214.08 262.455 268.627 187.358 350.201 212.815C404.011 229.616 445.29 282.565 485.095 333.732C533.99 396.355 584.606 461.269 658.318 459.996C739.156 458.723 792.966 382.099 844.81 308.021C887.563 247.181 931.545 184.303 990.514 163.684C1059.56 139.5 1116.81 211.287 1158.58 263.727C1161.03 267.037 1163.74 270.091 1166.19 273.146C1184.62 296.311 1202.56 321.004 1220 345.188C1257.84 397.373 1296.67 451.341 1344.58 492.58C1371.11 515.491 1394.7 526.692 1416.57 526.692C1420.01 526.692 1423.7 526.437 1427.14 525.928C1456.13 521.091 1482.42 496.399 1515.1 443.958C1536.97 408.829 1554.9 368.098 1572.1 328.896C1573.79 324.899 1575.71 320.903 1577.41 316.906C1577.48 316.755 1577.51 316.601 1577.51 316.436V316.436C1577.51 315.092 1575.63 314.698 1575.09 315.928C1573.35 319.891 1571.56 323.816 1569.89 327.623C1552.69 366.826 1535 407.301 1513.13 442.431Z" fill="white" fill-opacity="0.5"/>
<path d="M1513.38 485.453C1480.7 537.639 1454.66 561.822 1426.4 566.659C1402.32 570.732 1376.27 560.04 1346.3 534.075C1299.12 493.345 1261.04 439.377 1224.18 387.446C1207.23 363.517 1189.54 338.57 1171.35 315.659C1169.14 312.859 1166.93 310.059 1164.72 307.259C1122.95 254.055 1065.7 180.995 994.446 205.942C940.144 225.035 894.934 280.784 855.13 330.169C843.827 344.17 833.262 357.153 822.696 369.118C817.782 374.718 812.868 380.573 807.463 386.683C766.675 434.541 715.814 494.363 657.09 495.127C586.326 496.4 535.219 434.541 485.832 374.973C445.29 326.096 403.52 275.438 350.693 258.892C268.381 232.926 212.606 307.259 158.796 379.046C126.608 422.067 96.1404 462.543 60.7586 482.653C41.9576 493.255 23.6175 496.693 5.9618 494.817C5.05003 494.72 4.24597 495.428 4.24597 496.345V496.345C4.24597 497.106 4.80717 497.751 5.56223 497.845C8.76019 498.239 11.8135 498.436 15.0571 498.436C30.2909 498.436 45.7705 494.618 61.9871 485.453C97.8604 465.088 128.574 424.358 160.761 381.082C214.08 310.059 269.118 236.49 349.956 261.692C402.046 277.984 443.57 328.388 483.866 377.009C533.253 436.577 584.115 498.182 654.878 498.182C655.616 498.182 656.107 498.182 656.844 498.182C716.551 497.163 767.904 437.086 809.183 388.719C814.342 382.61 819.502 376.755 824.416 371.154C834.982 359.19 845.547 345.952 856.85 331.951C896.409 282.821 941.373 227.326 994.937 208.488C1064.47 184.05 1121.23 256.346 1162.51 309.041C1164.72 311.841 1166.93 314.641 1169.14 317.441C1187.33 340.352 1205.02 365.299 1221.97 389.228C1259.07 441.414 1297.16 495.127 1344.58 536.366C1370.87 559.277 1394.7 570.478 1416.57 570.478C1420.01 570.478 1423.45 570.223 1426.89 569.714C1455.88 564.877 1482.42 540.184 1515.59 487.49C1537.95 452.105 1556.13 411.121 1573.58 371.663C1574.77 368.701 1576.19 365.738 1577.4 363.008C1577.47 362.84 1577.51 362.669 1577.51 362.485V362.485C1577.51 361.062 1575.59 360.64 1575.01 361.941C1573.73 364.825 1572.47 367.687 1571.12 370.645C1553.68 409.339 1535.74 450.069 1513.38 485.453Z" fill="white" fill-opacity="0.5"/>
<path d="M1513.62 528.219C1480.7 580.659 1454.66 605.097 1426.15 609.679C1402.07 613.752 1376.03 602.806 1346.05 576.841C1299.12 535.856 1261.28 481.889 1224.92 429.703C1207.97 405.519 1190.52 380.572 1172.58 357.407L1166.44 349.515C1124.92 295.802 1067.91 222.234 996.411 246.926C941.373 266.019 895.18 322.786 854.393 373.19C842.599 387.7 831.542 401.446 820.485 413.92C815.079 419.775 809.674 426.394 804.023 433.012C762.744 481.125 711.391 540.947 652.421 542.22C581.166 543.747 531.779 480.87 484.112 420.03C444.799 369.88 404.011 318.204 351.184 301.403C267.644 275.183 212.606 350.788 159.287 424.357C127.1 468.651 96.8776 510.4 61.0043 530.765C41.91 541.645 23.5113 544.839 5.80807 542.913C4.97808 542.822 4.24597 543.565 4.24597 544.4V544.4C4.24597 545.101 4.76861 545.595 5.4652 545.671C23.7539 547.673 42.5231 544.262 62.2328 533.056C98.5975 512.436 129.065 470.433 161.253 425.885C214.08 353.334 268.627 278.238 350.447 303.949C402.783 320.495 443.079 371.917 482.146 421.557C529.813 482.143 578.955 544.766 650.21 544.766C650.947 544.766 651.93 544.766 652.667 544.766C712.62 543.493 764.464 483.161 805.988 434.794C811.885 427.921 817.291 421.557 822.451 415.702C833.507 403.228 844.564 389.482 856.358 374.972C896.9 325.077 942.847 268.31 997.394 249.472C1067.17 225.543 1123.44 298.094 1164.72 351.297L1170.86 359.189C1188.8 382.354 1206.25 407.047 1223.2 431.23C1259.81 483.67 1297.65 537.638 1344.82 578.877C1371.11 601.788 1394.7 613.243 1416.57 613.243C1420.01 613.243 1423.45 612.989 1426.64 612.48C1463.25 606.37 1492.25 567.167 1515.84 529.746C1538.2 494.108 1556.62 452.868 1574.31 413.156C1575.51 410.687 1576.7 407.978 1577.67 405.495C1577.72 405.343 1577.75 405.19 1577.75 405.027V405.027C1577.75 403.603 1575.81 403.174 1575.22 404.47C1574.1 406.941 1572.98 409.412 1571.86 411.884C1554.17 451.85 1535.98 492.835 1513.62 528.219Z" fill="white" fill-opacity="0.5"/>
<path d="M1514.36 570.224C1490.77 607.899 1461.78 647.356 1425.91 653.211C1402.07 657.03 1376.03 646.084 1346.79 620.118C1300.35 578.879 1263.25 524.402 1227.38 471.962C1210.91 447.778 1193.71 422.577 1176.02 399.411L1170.37 392.029C1129.34 337.807 1073.07 263.474 1001.08 288.422C944.076 308.278 895.426 367.336 852.673 419.522C839.896 435.05 828.102 449.56 816.308 462.543C810.411 469.162 804.023 476.544 797.388 484.181C754.39 533.821 700.826 595.935 641.119 596.444C570.109 597.207 523.671 532.039 478.706 469.162C441.605 416.976 403.274 363.263 350.693 345.444C266.907 317.187 211.377 397.629 157.813 475.526C126.117 521.602 96.1404 564.878 61.4957 585.752C42.6303 597.133 23.997 600.579 5.82133 598.426C4.98715 598.327 4.24597 599.072 4.24597 599.912V599.912C4.24597 600.606 4.75943 601.096 5.44853 601.18C23.9878 603.427 43.0029 600.009 62.7243 588.298C98.1061 567.169 128.082 523.638 160.024 477.308C213.097 400.175 268.135 320.497 350.202 348.244C401.8 365.554 439.885 419.267 476.741 470.944C521.705 534.076 568.144 599.498 639.89 599.498C640.382 599.498 640.873 599.498 641.364 599.498C702.054 598.735 756.11 536.367 799.354 486.218C805.988 478.581 812.131 471.198 818.274 464.58C830.068 451.342 842.107 436.832 854.884 421.304C897.391 369.373 945.796 310.823 1002.31 290.967C1072.58 266.529 1128.36 339.843 1168.9 393.556L1174.55 400.939C1192.24 424.104 1209.44 449.306 1225.9 473.489C1261.77 526.184 1299.12 580.661 1345.56 622.155C1371.61 645.32 1394.95 656.775 1416.82 656.775C1420.01 656.775 1423.45 656.521 1426.64 656.012C1447.28 652.702 1474.07 640.229 1516.82 572.006C1539.42 535.858 1558.1 494.109 1576.03 453.888C1576.74 452.426 1577.45 450.963 1577.94 449.501C1577.98 449.372 1578 449.244 1578 449.108V449.108C1578 447.694 1576.03 447.258 1575.44 448.541C1574.82 449.879 1574.2 451.225 1573.58 452.615C1555.39 492.582 1536.72 534.076 1514.36 570.224Z" fill="white" fill-opacity="0.5"/>
<path d="M1515.34 611.461C1489.79 652.191 1461.53 690.63 1425.66 696.231C1402.07 699.795 1376.52 688.849 1347.77 662.629C1302.07 620.88 1265.71 566.149 1230.82 513.2C1214.6 488.762 1197.89 463.305 1180.69 439.885L1174.79 431.994C1134.01 376.244 1077.99 300.13 1006.73 328.386C946.041 352.57 894.689 413.156 849.478 466.869C835.965 482.907 823.188 497.926 810.411 511.927C803.777 519.309 796.406 527.455 788.789 536.365C745.544 586.005 686.575 653.719 626.131 653.719C625.885 653.719 625.885 653.719 625.639 653.719C554.876 653.464 513.105 585.496 472.564 519.818C438.41 464.323 403.029 406.792 349.956 389.227C265.433 360.971 210.149 445.995 156.83 528.473C125.625 576.586 96.1404 622.153 61.9871 643.791C42.9341 655.881 24.1119 659.601 5.96812 657.268C5.06012 657.151 4.24597 657.851 4.24597 658.767V658.767C4.24597 659.52 4.80455 660.157 5.55228 660.243C9.04816 660.645 12.544 660.847 16.0399 660.847C31.5195 660.847 47.2447 656.519 63.4614 646.082C98.1061 623.935 127.837 578.113 159.041 529.746C211.868 448.286 266.661 364.025 349.464 391.773C401.554 409.083 436.69 466.105 470.598 521.346C511.385 587.532 553.647 656.264 625.885 656.519C626.131 656.519 626.131 656.519 626.376 656.519C687.803 656.519 747.264 588.296 790.754 538.401C798.371 529.746 805.497 521.346 812.377 513.963C825.153 499.962 837.93 484.943 851.444 468.906C896.654 415.702 947.761 355.116 1007.71 331.187C1077.25 303.439 1132.53 378.79 1172.83 433.776L1178.73 441.667C1195.93 465.087 1212.63 490.289 1228.85 514.727C1263.99 567.931 1300.11 622.662 1346.3 664.665C1371.85 688.085 1395.19 699.54 1417.06 699.54C1420.26 699.54 1423.2 699.286 1426.4 698.777C1463.25 693.176 1492.25 654.228 1517.8 612.734C1540.85 575.893 1559.75 533.726 1577.9 492.815C1577.96 492.66 1578 492.493 1578 492.323C1578 492.139 1578 491.954 1578 491.767C1578 490.56 1576.25 490.192 1575.79 491.307V491.307C1557.11 532.292 1538.2 574.549 1515.34 611.461Z" fill="white" fill-opacity="0.5"/>
<path d="M1516.33 652.448C1502.76 674.267 1488.29 695.394 1472.51 711.43C1471.65 712.303 1472.21 713.797 1473.44 713.797V713.797C1473.8 713.797 1474.21 713.651 1474.47 713.388C1490.28 697.148 1504.89 675.937 1518.54 653.975C1540.64 618.246 1559.14 577.542 1577.12 538.011C1577.54 537.094 1577.75 536.1 1577.75 535.094V535.094C1577.75 533.566 1577.75 531.784 1577.75 530.257V530.257C1577.75 530.425 1577.72 530.59 1577.65 530.743C1558.76 572.165 1539.63 615.096 1516.33 652.448Z" fill="white" fill-opacity="0.5"/>
<path d="M1234.01 554.186C1218.28 529.493 1202.07 504.037 1185.11 480.363L1179.71 472.726C1139.66 416.212 1084.62 339.08 1012.63 368.609C948.989 394.829 894.688 457.961 846.775 513.71C832.033 530.766 818.273 546.804 804.513 561.568C797.142 569.46 789.034 578.879 780.434 588.552C734.733 640.483 672.323 711.506 610.896 711.506C610.65 711.506 610.159 711.506 609.913 711.506C539.887 710.488 501.557 639.21 464.7 570.223C433.496 511.928 401.308 451.597 349.464 432.505C265.432 401.702 209.165 493.6 154.618 582.443C123.905 632.592 94.9113 679.94 62.7236 701.833C57.3608 705.479 51.998 708.415 46.7132 710.721C45.3844 711.3 45.7907 713.543 47.2405 713.543V713.543C47.4052 713.543 47.5683 713.511 47.7206 713.449C53.2884 711.168 58.6236 708.145 64.1979 704.379C96.8769 681.977 126.116 634.374 157.075 583.97C210.885 495.891 266.661 405.012 348.972 435.05C399.834 453.633 431.776 513.456 462.735 571.496C498.362 638.192 535.218 707.179 601.314 713.543C607.456 713.543 613.599 713.543 619.742 713.543C679.448 707.433 738.418 640.228 782.154 590.334C790.754 580.661 798.862 571.242 806.233 563.35C819.993 548.331 833.998 532.293 848.495 515.238C896.408 459.743 950.463 396.866 1013.61 370.646C1083.88 341.625 1138.18 417.994 1177.74 473.744L1183.15 481.381C1200.1 505.055 1216.32 530.512 1232.04 555.204C1266.2 608.663 1301.58 664.157 1347.03 706.67C1349.36 708.842 1351.69 711.014 1354.02 712.969C1354.27 713.176 1354.6 713.288 1354.92 713.288V713.288C1356.2 713.288 1356.77 711.715 1355.8 710.885C1353.45 708.869 1351.04 706.816 1348.75 704.633C1303.54 662.885 1268.16 607.644 1234.01 554.186Z" fill="white" fill-opacity="0.5"/>
<path d="M1189.29 521.347L1184.13 513.965C1144.57 456.943 1090.52 378.537 1017.79 409.339C951.693 437.341 897.146 499.964 844.319 560.296C828.594 578.37 813.851 595.171 799.109 610.954C791.246 619.354 782.155 629.537 772.818 640.229C752.856 662.88 729.677 689.103 704.835 711.758C703.948 712.567 704.539 714.052 705.74 714.052V714.052C706.069 714.052 706.366 713.928 706.607 713.705C731.284 690.877 754.492 664.806 774.538 642.011C783.875 631.319 792.966 621.391 800.829 612.99C815.571 597.207 830.559 580.152 846.039 562.332C898.62 502.001 952.922 439.632 1018.53 411.885C1089.53 382.101 1142.85 459.234 1181.92 515.747L1187.08 523.129C1203.54 547.058 1219.51 572.515 1234.99 597.462C1259.46 636.998 1284.65 677.796 1314.21 713.575C1314.46 713.877 1314.85 714.052 1315.25 714.052V714.052C1316.36 714.052 1316.95 712.746 1316.24 711.884C1286.8 676.25 1261.77 635.603 1237.2 595.935C1221.73 570.987 1205.75 545.276 1189.29 521.347Z" fill="white" fill-opacity="0.5"/>
<path d="M1505.89 711.733C1505.31 712.62 1505.97 713.797 1507.02 713.797V713.797C1507.48 713.797 1507.88 713.567 1508.12 713.186C1511.92 707.28 1515.72 701.374 1519.52 695.468C1541.59 660.16 1559.98 620.036 1577.64 580.66C1577.72 580.492 1577.75 580.32 1577.75 580.136V580.136C1577.75 578.73 1575.84 578.308 1575.26 579.59C1557.61 618.803 1539.37 658.693 1517.31 693.941C1513.58 699.85 1509.66 705.962 1505.89 711.733Z" fill="white" fill-opacity="0.5"/>
<path d="M348.728 476.288C265.188 443.45 205.481 545.784 152.654 635.9C136.686 663.06 121.412 689.503 105.71 711.742C105.101 712.603 105.739 713.796 106.794 713.796V713.796C107.216 713.796 107.587 713.592 107.829 713.246C123.422 690.962 138.779 664.695 154.619 637.427C209.412 543.748 265.925 446.759 347.745 478.834C397.624 498.435 426.863 560.803 455.119 621.135C470.251 653.501 485.625 686.621 504.613 713.258C504.855 713.597 505.221 713.796 505.637 713.796V713.796C506.691 713.796 507.327 712.6 506.716 711.741C487.98 685.343 472.655 652.361 457.331 619.862C429.074 559.276 399.589 496.399 348.728 476.288Z" fill="white" fill-opacity="0.5"/>
<path d="M348.727 519.564C264.941 485.452 204.989 591.605 151.916 685.285C146.885 694.288 141.854 703.291 136.823 711.884C136.328 712.73 136.937 713.796 137.918 713.796V713.796C138.37 713.796 138.787 713.555 139.014 713.164C144.052 704.465 149.09 695.76 154.127 686.812C206.463 594.151 265.924 489.016 347.745 522.11C397.377 542.22 424.651 606.37 450.942 668.229C457.219 683.237 463.733 698.245 470.485 712.77C470.704 713.241 471.176 713.541 471.695 713.541V713.541C472.672 713.541 473.319 712.526 472.909 711.64C466.117 696.96 459.758 681.841 453.399 666.956C426.862 604.843 399.343 540.184 348.727 519.564Z" fill="white" fill-opacity="0.5"/>
<path d="M1191.75 563.096L1187.08 555.968C1148.01 498.436 1094.45 419.267 1021.23 450.324C953.412 478.835 897.146 542.985 842.844 605.099C826.382 623.936 810.902 641.501 795.423 657.793C787.069 666.703 777.486 677.14 767.658 688.595C761.158 696.026 754.045 703.88 746.878 711.771C746.083 712.648 746.704 714.052 747.888 714.052V714.052C748.273 714.052 748.64 713.889 748.899 713.603C756.117 705.616 762.87 697.879 769.624 690.632C779.698 679.431 789.034 668.74 797.388 660.084C812.868 643.792 828.593 625.973 844.81 607.39C899.111 545.531 955.132 481.635 1022.21 453.379C1093.47 423.34 1146.29 501.237 1185.11 558.259L1189.78 565.387C1206 589.316 1221.72 615.027 1236.71 639.974C1251.58 664.724 1266.94 689.724 1283.25 713.981C1283.5 714.344 1283.88 714.561 1284.32 714.561V714.561C1285.38 714.561 1286.02 713.375 1285.43 712.501C1269.02 688.427 1253.97 663.196 1238.92 638.446C1223.69 612.99 1208.21 587.025 1191.75 563.096Z" fill="white" fill-opacity="0.5"/>
<path d="M1533.02 713.796C1533.48 713.796 1533.91 713.544 1534.14 713.135C1549.92 684.639 1564.02 654.167 1577.64 623.938C1577.71 623.768 1577.75 623.595 1577.75 623.409V623.409C1577.75 621.997 1575.83 621.571 1575.25 622.858C1561.61 652.967 1547.67 683.375 1531.89 711.882C1531.41 712.741 1532.03 713.796 1533.02 713.796V713.796Z" fill="white" fill-opacity="0.5"/>
<path d="M1555.3 713.797C1555.81 713.797 1556.27 713.507 1556.49 713.05C1563.69 698.101 1570.67 682.914 1577.64 667.724C1577.71 667.554 1577.75 667.379 1577.75 667.193V667.193C1577.75 665.792 1575.84 665.372 1575.26 666.649C1568.46 681.73 1561.47 696.812 1554.11 711.893C1553.68 712.772 1554.32 713.797 1555.3 713.797V713.797Z" fill="white" fill-opacity="0.5"/>
<path d="M349.219 561.313C269.439 529.464 211.705 622.354 161.342 712.137C160.861 712.995 161.483 714.051 162.467 714.051V714.051C162.931 714.051 163.359 713.801 163.587 713.397C213.624 624.755 270.783 532.878 348.482 564.113C398.852 584.223 425.142 649.392 450.45 712.523C450.597 712.828 450.744 713.223 450.891 713.601C451.06 714.037 451.548 714.305 452.015 714.305V714.305C452.912 714.305 453.494 713.342 453.158 712.511C453.034 712.205 452.905 711.916 452.752 711.653C452.694 711.553 452.64 711.451 452.597 711.344C427.064 647.499 400.774 581.66 349.219 561.313Z" fill="white" fill-opacity="0.5"/>
<path d="M1192.73 605.862L1188.31 599.498C1149.24 541.457 1095.92 462.288 1022.7 492.581C954.395 520.838 894.934 589.061 842.107 649.138C825.644 667.975 810.165 685.795 794.685 702.087C791.893 704.979 788.94 708.207 785.956 711.498C785.154 712.382 785.782 713.797 786.975 713.797V713.797C787.349 713.797 787.706 713.645 787.965 713.376C791.004 710.207 793.827 707.049 796.651 704.123C812.13 687.831 827.856 670.012 844.318 651.174C896.654 591.352 956.115 523.383 1023.93 495.381C1095.18 465.852 1148.01 544.003 1186.59 601.28L1191.01 607.644C1207.23 631.573 1222.71 657.538 1237.7 682.486C1243.71 692.706 1249.96 702.927 1256.22 713.387C1256.46 713.799 1256.85 714.051 1257.33 714.051V714.051C1258.39 714.051 1259.11 712.89 1258.56 711.981C1252.34 701.696 1246.12 691.215 1239.91 680.958C1224.43 655.756 1208.95 630.045 1192.73 605.862Z" fill="white" fill-opacity="0.5"/>
<path d="M1190.27 643.282C1151.45 585.241 1098.38 505.563 1024.91 536.111C956.116 564.876 895.917 633.863 842.845 694.958C837.898 700.529 833.14 706.099 828.405 711.499C827.622 712.392 828.255 713.796 829.443 713.796V713.796C829.84 713.796 830.218 713.625 830.48 713.327C835.257 707.882 840.034 702.432 844.81 696.74C897.637 635.9 957.59 566.913 1025.9 538.656C1097.4 508.872 1149.73 587.532 1188.06 644.809L1191.99 650.664C1205.37 670.563 1218.26 691.956 1230.67 712.873C1230.91 713.287 1231.3 713.541 1231.78 713.541V713.541C1232.85 713.541 1233.56 712.382 1233.01 711.471C1220.39 690.493 1207.53 669.091 1194.21 648.882L1190.27 643.282Z" fill="white" fill-opacity="0.5"/>
<path d="M1576.88 713.796C1577.28 713.796 1577.51 713.475 1577.51 713.078C1577.51 712.989 1577.51 712.9 1577.51 712.81C1577.51 711.962 1576.54 711.741 1576.19 712.513C1576.16 712.571 1576.14 712.629 1576.11 712.687C1575.88 713.189 1576.33 713.796 1576.88 713.796V713.796Z" fill="white" fill-opacity="0.5"/>
<path d="M350.939 597.462C282.513 569.206 229.292 635.46 182.663 711.976C182.109 712.885 182.684 714.052 183.749 714.052V714.052C184.225 714.052 184.747 713.802 184.996 713.395C231.09 637.814 283.317 572.594 350.202 600.008C390.288 616.468 414.57 662.404 434.656 713.255C434.846 713.735 435.38 714.052 435.896 714.052V714.052C436.783 714.052 437.319 713.156 436.991 712.333C416.492 660.829 392.007 614.33 350.939 597.462Z" fill="white" fill-opacity="0.5"/>
<path d="M1193.22 687.322C1154.65 629.027 1102.07 549.094 1028.6 580.405C970.223 605.25 918.056 658.545 871.155 711.756C870.368 712.649 871.005 714.051 872.196 714.051V714.051C872.593 714.051 872.971 713.881 873.234 713.583C920.055 660.535 971.765 607.571 1029.58 582.951C1101.08 552.403 1153.17 631.318 1191.01 689.104L1194.7 694.704C1198.74 700.865 1202.78 707.026 1206.83 713.417C1207.08 713.812 1207.46 714.051 1207.92 714.051V714.051C1208.99 714.051 1209.7 712.88 1209.13 711.974C1205.14 705.541 1201.12 699.128 1196.91 692.922L1193.22 687.322Z" fill="white" fill-opacity="0.5"/>
<path d="M353.396 629.537C295.067 603.602 246.595 649.395 203.698 711.982C203.098 712.858 203.746 714.052 204.808 714.052V714.052C205.244 714.052 205.629 713.835 205.876 713.476C248.284 651.912 295.831 606.959 352.413 632.337C382.417 645.731 402.976 676.187 419.38 713.243C419.597 713.733 420.083 714.052 420.618 714.052V714.052C421.593 714.052 422.245 713.048 421.85 712.157C405.037 674.321 384.09 643.308 353.396 629.537Z" fill="white" fill-opacity="0.5"/>
<path d="M356.344 659.83C309.863 633.995 266.96 663.27 227.164 711.617C226.449 712.486 227.04 713.797 228.165 713.797V713.797C228.566 713.797 228.972 713.614 229.226 713.303C268.181 665.743 310.306 637.514 355.116 662.375C373.365 672.459 388.481 690.78 401.181 713.137C401.412 713.544 401.844 713.797 402.311 713.797V713.797C403.297 713.797 403.92 712.74 403.438 711.881C390.625 689.066 375.229 670.231 356.344 659.83Z" fill="white" fill-opacity="0.5"/>
<path d="M1033.02 624.445C991.365 642.656 952.776 675.048 917.023 711.556C916.205 712.392 916.797 713.797 917.966 713.797V713.797C918.322 713.797 918.663 713.653 918.912 713.399C954.429 677.159 992.632 644.999 1034 626.991C1097.9 599.09 1145.7 658.884 1181.77 713.205C1182.02 713.576 1182.41 713.797 1182.86 713.797V713.797C1183.92 713.797 1184.58 712.622 1183.99 711.739C1147.29 656.764 1098.79 595.783 1033.02 624.445Z" fill="white" fill-opacity="0.5"/>
<path d="M1037.2 668.738C1013.98 679.188 991.65 694.046 970.219 711.319C969.192 712.146 969.779 713.796 971.098 713.796V713.796C971.419 713.796 971.731 713.685 971.981 713.483C993.238 696.307 1015.23 681.658 1038.43 671.284C1081.51 652.007 1121.67 673.417 1158.66 713.356C1158.92 713.635 1159.28 713.796 1159.66 713.796V713.796C1160.85 713.796 1161.46 712.386 1160.65 711.523C1122.66 670.965 1081.59 648.993 1037.2 668.738Z" fill="white" fill-opacity="0.5"/>
<path d="M359.047 690.631C323.653 669.323 289.657 682.017 257.057 711.344C256.093 712.211 256.688 713.796 257.984 713.796V713.796C258.337 713.796 258.7 713.663 258.962 713.428C290.778 684.924 323.811 672.645 357.818 693.176C366.258 698.173 373.988 705.131 381.008 713.329C381.261 713.625 381.653 713.796 382.042 713.796V713.796C383.164 713.796 383.749 712.489 383.015 711.641C375.685 703.17 367.889 696.033 359.047 690.631Z" fill="white" fill-opacity="0.5"/>
<path d="M315.046 713.56C314.893 713.583 314.911 713.795 315.065 713.795V713.795C318.241 713.795 321.417 713.795 324.593 713.795C325.759 713.795 325.813 712.841 324.648 712.841C321.447 712.841 318.247 713.081 315.046 713.56Z" fill="white" fill-opacity="0.5"/>
<path d="M1040.39 712.777V712.777C1039.72 713.128 1039.92 714.05 1040.68 714.05C1041.88 714.05 1043.1 714.05 1044.25 714.05C1044.46 714.05 1044.67 714.009 1044.86 713.93C1065.05 705.698 1084.52 706.442 1103.26 713.937C1103.44 714.011 1103.65 714.05 1103.85 714.05V714.05C1105.51 714.05 1105.97 711.909 1104.43 711.29C1084.13 703.139 1062.67 702.623 1040.39 712.777Z" fill="white" fill-opacity="0.5"/>
</g>
<g opacity="0.7">
<rect width="1573.9" height="714.204" rx="15" transform="matrix(1 -8.74228e-08 -8.74228e-08 -1 4.00012 1428.55)" fill="url(#paint3_linear_0_476)"/>
<path d="M1123.55 1384.58C1123.31 1392.86 1130.05 1399.61 1138.34 1399.61L1537.1 1399.61C1545.38 1399.61 1552.1 1392.89 1552.1 1384.61L1552.1 942.391C1552.1 934.107 1545.35 927.362 1537.07 927.676C1311.7 936.224 1130.6 1136.34 1123.55 1384.58Z" fill="url(#paint4_linear_0_476)"/>
<path d="M540.091 729.885C540.286 721.599 533.551 714.831 525.262 714.831L19.1404 714.831C10.8562 714.831 4.14045 721.546 4.14045 729.831L4.1405 1290.16C4.1405 1298.45 10.8973 1305.19 19.1777 1304.94C303.755 1296.31 532.74 1043.52 540.091 729.885Z" fill="url(#paint5_linear_0_476)"/>
<path d="M1551 48.9998C1551 40.7155 1544.28 33.9999 1536 33.9999L43 34C34.7157 34 28 40.7157 28 49L28.0001 1385.37C28.0001 1393.66 34.7159 1400.37 43.0001 1400.37L1536 1400.37C1544.28 1400.37 1551 1393.66 1551 1385.37L1551 48.9998ZM29.2284 52.169C29.2284 43.8848 35.9442 37.169 44.2284 37.169L1534.77 37.1689C1543.06 37.1689 1549.77 43.8846 1549.77 52.1689L1549.77 1382.2C1549.77 1390.49 1543.06 1397.2 1534.77 1397.2L44.2286 1397.21C35.9443 1397.21 29.2285 1390.49 29.2285 1382.21L29.2284 52.169Z" fill="#1F1F1F" fill-opacity="0.5"/>
<path d="M5.78113 1396.3C4.96411 1396.38 4.24597 1395.65 4.24597 1394.83V1394.83C4.24597 1394.12 4.78928 1393.62 5.49706 1393.56C8.02852 1393.35 10.56 1393.16 13.0914 1393.16C29.5538 1393.16 46.2619 1398.51 62.97 1411.49C68.3732 1415.75 73.5863 1420.59 78.7766 1426.03C79.5948 1426.88 78.9824 1428.29 77.7975 1428.29V1428.29C77.4291 1428.29 77.0765 1428.14 76.8203 1427.88C71.7938 1422.68 66.7614 1417.75 61.4957 1413.78C43.0876 1399.17 24.2144 1394.44 5.78113 1396.3Z" fill="white" fill-opacity="0.5"/>
<path d="M61.4957 1377.89C42.7995 1363.24 24.1032 1358.52 5.63506 1360.19C4.8927 1360.25 4.24597 1359.77 4.24597 1359.03V1359.03C4.24597 1358.38 4.74352 1357.73 5.3917 1357.68C7.96203 1357.46 10.5565 1357.27 13.3371 1357.27C29.7995 1357.27 46.5076 1362.61 62.97 1375.6C78.4351 1387.68 92.7483 1405.24 106.356 1426.22C106.935 1427.12 106.268 1428.29 105.204 1428.29V1428.29C104.747 1428.29 104.344 1428.06 104.095 1427.68C90.6997 1407.07 76.5795 1389.74 61.4957 1377.89Z" fill="white" fill-opacity="0.5"/>
<path d="M694.438 1380.43C728.085 1382.18 749.508 1400.48 764.685 1426.53C765.14 1427.32 764.493 1428.29 763.588 1428.29V1428.29C763.168 1428.29 762.859 1428.07 762.646 1427.7C747.69 1402.31 727.355 1384.75 694.438 1383.23C660.929 1381.46 628.394 1401.89 599.014 1427.94C598.755 1428.16 598.4 1428.29 598.054 1428.29V1428.29C596.765 1428.29 596.173 1426.71 597.134 1425.85C625.693 1400.27 657.638 1380.18 690.507 1380.18C691.735 1380.18 692.964 1380.18 694.438 1380.43Z" fill="white" fill-opacity="0.5"/>
<path d="M61.4957 1350.91C42.8952 1336.58 24.2947 1331.84 5.91887 1333.43C5.0246 1333.51 4.24596 1332.81 4.24596 1331.91V1331.91C4.24596 1331.14 4.83841 1330.48 5.61404 1330.41C7.86699 1330.21 10.1486 1330.03 12.6 1330.03C29.3081 1330.03 46.0162 1335.38 62.97 1348.36C84.4237 1365.09 104.222 1393.34 123.525 1426.37C124.022 1427.22 123.409 1428.29 122.425 1428.29V1428.29C121.972 1428.29 121.552 1428.05 121.323 1427.66C102.035 1394.84 82.7359 1367.09 61.4957 1350.91Z" fill="white" fill-opacity="0.5"/>
<path d="M690.506 1319.34C745.967 1321.86 772.048 1370.54 791.875 1426.59C792.168 1427.42 791.572 1428.29 790.692 1428.29V1428.29C790.151 1428.29 789.65 1427.95 789.469 1427.44C769.375 1370.81 744.534 1324.67 690.26 1322.14C636.892 1319.86 584.986 1381.26 548.397 1427.78C548.141 1428.11 547.73 1428.29 547.316 1428.29V1428.29C546.188 1428.29 545.57 1427 546.269 1426.12C583.296 1379.24 636.067 1316.83 690.506 1319.34Z" fill="white" fill-opacity="0.5"/>
<path d="M61.25 1328.76C42.8391 1314.89 24.1954 1310.17 5.77195 1311.57C4.95282 1311.63 4.24596 1310.89 4.24596 1310.07V1310.07C4.24596 1309.35 4.79311 1308.85 5.50916 1308.78C7.73039 1308.57 9.83235 1308.39 12.1086 1308.39C28.8167 1308.39 45.7705 1313.74 62.7243 1326.47C88.8705 1346.03 112.631 1383.64 136.827 1426.38C137.311 1427.23 136.695 1428.29 135.712 1428.29V1428.29C135.249 1428.29 134.821 1428.04 134.593 1427.64C110.639 1385.14 86.9174 1348.01 61.25 1328.76Z" fill="white" fill-opacity="0.5"/>
<path d="M1433.77 1369.74C1452.85 1384.07 1470.07 1403.91 1486.57 1426.25C1487.19 1427.09 1486.56 1428.29 1485.51 1428.29V1428.29C1485.1 1428.29 1484.73 1428.1 1484.49 1427.76C1468.38 1405.83 1451.07 1386.18 1432.54 1372.03C1389.79 1339.45 1345.07 1338.69 1291.51 1368.98C1261.66 1385.96 1233.29 1406.47 1205.88 1428C1205.64 1428.19 1205.34 1428.29 1205.03 1428.29V1428.29C1203.73 1428.29 1203.15 1426.65 1204.18 1425.84C1231.72 1404.08 1260.2 1383.36 1290.28 1366.43C1343.84 1335.89 1390.77 1336.9 1433.77 1369.74Z" fill="white" fill-opacity="0.5"/>
<path d="M61.2501 1307.37C42.8413 1294 24.1999 1289.3 5.77854 1290.7C4.95594 1290.76 4.24608 1290.02 4.24608 1289.19V1289.19C4.24608 1288.47 4.78816 1287.97 5.50361 1287.92C7.5415 1287.77 9.5794 1287.77 11.6173 1287.77C28.5711 1287.77 45.5249 1292.86 62.4787 1305.34C92.5751 1327.47 120.514 1374.93 149.847 1426.63C150.331 1427.49 149.716 1428.55 148.735 1428.55V1428.55C148.272 1428.55 147.844 1428.3 147.617 1427.89C118.754 1376.47 90.855 1329.17 61.2501 1307.37Z" fill="white" fill-opacity="0.5"/>
<path d="M1409.69 1284.21C1461.52 1299.08 1498.41 1361.14 1532.53 1426.38C1532.98 1427.25 1532.35 1428.29 1531.37 1428.29V1428.29C1530.88 1428.29 1530.44 1428.02 1530.21 1427.59C1496.16 1362.93 1459.88 1301.47 1408.95 1287.01C1379.47 1278.61 1347.53 1285.99 1311.41 1309.92C1261.43 1342.91 1216.35 1386.03 1172.73 1428.16C1172.48 1428.41 1172.16 1428.55 1171.81 1428.55V1428.55C1170.58 1428.55 1169.95 1427.05 1170.83 1426.2C1214.55 1383.92 1259.76 1340.62 1309.93 1307.63C1347.03 1282.94 1379.47 1275.55 1409.69 1284.21Z" fill="white" fill-opacity="0.5"/>
<path d="M536.939 1386.8C572.812 1335.12 626.622 1257.48 684.117 1257.48C684.854 1257.48 685.592 1257.48 686.329 1257.48C759.549 1260.03 787.806 1344.54 815.325 1426.26C815.391 1426.46 815.457 1426.65 815.523 1426.83C815.791 1427.55 815.271 1428.29 814.499 1428.29C814.421 1428.29 814.342 1428.29 814.263 1428.29C813.764 1428.29 813.218 1427.88 813.127 1427.39V1427.39C813.109 1427.3 813.098 1427.23 813.067 1427.13C786.053 1346.23 757.789 1262.82 686.574 1260.28C629.325 1258.24 575.023 1336.65 539.15 1388.58C533.745 1396.47 528.339 1404.11 523.671 1410.47C519.625 1415.9 515.579 1421.8 511.533 1427.72C511.287 1428.08 510.902 1428.29 510.465 1428.29V1428.29C509.404 1428.29 508.752 1427.11 509.352 1426.23C513.549 1420.09 517.726 1414.19 521.705 1408.69C526.373 1402.33 531.533 1394.69 536.939 1386.8Z" fill="white" fill-opacity="0.5"/>
<path d="M61.2501 1282.94C42.8332 1269.55 24.1835 1265.1 5.75424 1266.28C4.94128 1266.33 4.24608 1265.59 4.24608 1264.78V1264.78C4.24608 1264.05 4.80497 1263.54 5.53083 1263.5C24.2891 1262.27 43.5013 1266.96 62.4787 1280.65C93.4378 1302.79 123.168 1353.7 154.373 1407.42C158.175 1413.67 161.773 1420.14 165.538 1426.63C166.033 1427.48 165.42 1428.55 164.435 1428.55V1428.55C163.986 1428.55 163.569 1428.31 163.34 1427.92C159.547 1421.51 155.97 1415.11 152.162 1408.95C121.203 1355.23 91.7178 1304.83 61.2501 1282.94Z" fill="white" fill-opacity="0.5"/>
<path d="M1327.13 1250.1C1400.35 1196.38 1444.34 1206.57 1495.93 1289.81C1515.34 1321.12 1530.82 1357.27 1545.81 1392.14C1550.7 1403.48 1555.59 1415.04 1560.69 1426.4C1561.08 1427.29 1560.44 1428.29 1559.46 1428.29V1428.29C1558.93 1428.29 1558.45 1427.98 1558.24 1427.49C1553.19 1416.06 1548.16 1404.86 1543.36 1393.42C1528.37 1358.54 1512.89 1322.65 1493.72 1291.59C1442.86 1209.11 1401.09 1199.18 1328.61 1252.64C1275.53 1291.85 1228.6 1342.5 1183.39 1391.38C1172.22 1403.46 1160.81 1415.79 1149.39 1427.87C1149.14 1428.14 1148.79 1428.29 1148.42 1428.29V1428.29C1147.24 1428.29 1146.64 1426.89 1147.45 1426.03C1159.02 1413.78 1170.56 1401.33 1181.67 1389.34C1226.88 1340.21 1273.81 1289.56 1327.13 1250.1Z" fill="white" fill-opacity="0.5"/>
<path d="M520.231 1362.36C524.654 1355.49 529.814 1347.34 535.219 1338.69C570.356 1282.68 622.937 1198.42 681.415 1198.42C681.907 1198.42 682.398 1198.42 682.889 1198.42C742.842 1199.95 778.469 1284.72 802.303 1340.98C805.006 1347.09 807.217 1352.94 809.674 1358.03C815.571 1371.27 821.222 1386.29 827.365 1402.07C830.347 1409.91 833.544 1418.2 836.754 1426.31C837.082 1427.14 836.383 1428.04 835.493 1428.04V1428.04C834.981 1428.04 834.61 1427.73 834.416 1427.25C831.098 1419.11 828.011 1410.98 825.154 1403.09C819.011 1387.31 813.36 1372.29 807.463 1359.05C805.251 1353.7 802.794 1348.1 800.092 1341.99C776.749 1286.5 741.368 1202.49 683.135 1201.22C682.644 1201.22 682.152 1201.22 681.661 1201.22C624.411 1201.22 572.075 1284.72 537.431 1340.21C532.025 1348.87 526.865 1357.27 522.443 1363.89C513.106 1377.89 503.523 1393.93 493.203 1411.24C490.135 1416.61 486.841 1421.99 483.537 1427.37C483.284 1427.79 482.891 1428.04 482.407 1428.04V1428.04C481.334 1428.04 480.61 1426.88 481.156 1425.95C484.477 1420.34 487.929 1414.92 490.992 1409.71C501.066 1392.65 510.894 1376.36 520.231 1362.36Z" fill="white" fill-opacity="0.5"/>
<path d="M61.0043 1250.86C42.5957 1237.73 24.1872 1233.28 5.77863 1234.46C4.95248 1234.51 4.24595 1233.76 4.24595 1232.94V1232.94C4.24595 1232.22 4.78587 1231.7 5.50406 1231.65C7.36413 1231.51 9.32629 1231.51 11.1258 1231.51C28.0795 1231.51 45.279 1236.61 62.4785 1248.57C93.1919 1270.21 122.922 1320.36 154.373 1373.56C164.772 1390.95 175.399 1408.8 186.471 1426.22C187.04 1427.12 186.374 1428.29 185.313 1428.29V1428.29C184.852 1428.29 184.446 1428.06 184.2 1427.66C173.281 1410.3 162.601 1392.44 152.162 1374.83C120.957 1322.14 91.2263 1272.24 61.0043 1250.86Z" fill="white" fill-opacity="0.5"/>
<path d="M519.248 1317.3C523.671 1310.17 528.585 1301.77 533.99 1292.61C568.389 1234.06 619.988 1145.98 679.695 1145.98C680.186 1145.98 680.677 1145.98 681.169 1145.98C741.613 1147.25 779.452 1235.33 804.268 1293.63C807.462 1301.01 810.411 1307.88 813.114 1313.99C819.502 1328.25 825.89 1344.54 832.524 1361.85C840.64 1382.38 849.45 1404.82 859.182 1426.39C859.584 1427.28 858.934 1428.29 857.956 1428.29V1428.29C857.431 1428.29 856.955 1427.99 856.736 1427.51C846.811 1405.86 838.079 1383.5 830.067 1362.87C823.433 1345.56 817.045 1329.27 810.656 1315.27C807.954 1309.16 805.005 1302.28 801.811 1294.9C777.24 1237.37 739.893 1150.05 680.923 1148.78C680.432 1148.78 679.94 1148.78 679.695 1148.78C621.462 1148.78 570.109 1236.1 536.202 1294.14C530.796 1303.3 525.882 1311.7 521.459 1318.83C512.614 1333.09 503.031 1350.14 492.957 1367.96C482.261 1387.1 470.843 1407.49 458.465 1427.4C458.218 1427.8 457.836 1428.04 457.367 1428.04V1428.04C456.303 1428.04 455.597 1426.87 456.155 1425.96C468.455 1405.99 480.06 1385.38 490.746 1366.43C500.82 1348.61 510.402 1331.81 519.248 1317.3Z" fill="white" fill-opacity="0.5"/>
<path d="M1191.75 1346.07C1236.71 1293.63 1283.4 1239.66 1337.21 1197.66C1374.06 1168.89 1403.06 1158.2 1428.61 1164.06C1454.9 1169.91 1478.24 1192.82 1503.8 1238.13C1522.22 1270.46 1536.23 1307.88 1549.74 1344.03C1558.31 1367.11 1567.12 1390.44 1577.39 1413.01C1577.47 1413.18 1577.51 1413.36 1577.51 1413.55V1413.55C1577.51 1414.97 1575.59 1415.4 1575.01 1414.1C1564.99 1391.62 1556.16 1368.33 1547.53 1345.05C1534.02 1308.9 1520.01 1271.74 1501.83 1239.66C1476.52 1194.86 1453.67 1172.46 1428.12 1166.86C1403.3 1161.25 1374.8 1171.95 1338.68 1200.2C1285.12 1241.95 1238.68 1295.92 1193.71 1348.1C1172.83 1372.29 1151.21 1397.24 1129.34 1420.66C1127.24 1423.07 1124.93 1425.48 1122.6 1427.89C1122.35 1428.15 1122.01 1428.29 1121.65 1428.29V1428.29C1120.48 1428.29 1119.88 1426.88 1120.68 1426.03C1123.06 1423.48 1125.29 1420.98 1127.37 1418.62C1149.49 1395.2 1170.86 1370.25 1191.75 1346.07Z" fill="white" fill-opacity="0.5"/>
<path d="M61.0043 1209.62C42.5958 1196.49 24.1872 1191.8 5.77867 1192.97C4.95249 1193.02 4.24595 1192.27 4.24595 1191.44V1191.44C4.24595 1190.72 4.78583 1190.21 5.50392 1190.16C7.29596 1190.02 9.088 1190.02 10.88 1190.02C27.8338 1190.02 45.279 1195.11 62.4785 1207.33C91.2263 1227.7 120.711 1276.57 152.162 1328.5C172.3 1361.54 193.608 1396.51 215.858 1426.1C216.537 1427 215.917 1428.29 214.786 1428.29V1428.29C214.356 1428.29 213.929 1428.09 213.671 1427.75C191.46 1398.08 170.22 1363.18 149.95 1330.03C118.745 1278.35 89.2606 1229.73 61.0043 1209.62Z" fill="white" fill-opacity="0.5"/>
<path d="M1117.79 1390.11C1121.97 1385.27 1126.14 1380.69 1129.83 1376.62C1150.22 1353.96 1170.62 1329.78 1190.27 1306.36C1235.98 1251.88 1283.15 1195.62 1338.19 1152.6C1374.8 1123.83 1404.04 1113.14 1429.84 1119C1456.37 1124.85 1479.72 1148.02 1505.27 1193.58C1523.45 1226.17 1537.46 1264.1 1550.73 1300.76C1559.05 1323.83 1567.61 1347.16 1577.39 1369.48C1577.47 1369.65 1577.51 1369.85 1577.51 1370.04V1370.04C1577.51 1371.49 1575.53 1371.9 1574.95 1370.56C1565.21 1348.17 1556.64 1324.99 1548.27 1302.03C1535 1265.63 1521.24 1227.95 1503.06 1195.37C1478.24 1151.07 1454.9 1127.91 1429.35 1122.05C1404.28 1116.45 1375.78 1126.89 1339.66 1155.15C1284.87 1197.91 1237.7 1254.17 1192.24 1308.65C1172.58 1332.07 1152.44 1356.25 1131.8 1378.91C1128.11 1382.98 1123.93 1387.56 1119.76 1392.4C1110.03 1402.98 1098.86 1415.3 1086.73 1427.89C1086.48 1428.15 1086.14 1428.29 1085.78 1428.29V1428.29C1084.62 1428.29 1084.03 1426.89 1084.84 1426.05C1096.78 1413.77 1107.83 1401.15 1117.79 1390.11Z" fill="white" fill-opacity="0.5"/>
<path d="M518.757 1274.28C522.934 1267.41 528.094 1259.01 533.253 1250.1C567.407 1191.55 619.005 1103.47 678.712 1103.47C679.203 1103.47 679.941 1103.47 680.432 1103.47C739.893 1105 778.223 1192.31 803.777 1250.1C807.217 1257.99 810.411 1265.37 813.359 1271.74C819.994 1286.25 826.873 1302.79 833.999 1320.36C847.952 1354.75 863.788 1393.78 883.585 1426.22C884.138 1427.13 883.565 1428.29 882.503 1428.29V1428.29C882.032 1428.29 881.517 1428.05 881.271 1427.65C861.309 1394.94 845.456 1355.77 831.542 1321.38C824.416 1303.81 817.782 1287.26 811.148 1272.75C808.2 1266.39 805.005 1259.01 801.566 1251.12C776.503 1194.09 738.419 1107.8 680.432 1106.01C621.708 1104.23 569.864 1192.82 535.465 1251.37C530.305 1260.28 525.391 1268.68 520.968 1275.81C511.877 1290.57 502.54 1307.12 492.466 1324.68C472.923 1359.11 451.923 1396.04 428.499 1427.74C428.242 1428.09 427.812 1428.29 427.379 1428.29V1428.29C426.249 1428.29 425.629 1427 426.306 1426.1C449.947 1394.51 470.805 1357.74 490.255 1323.41C500.329 1305.59 509.665 1289.05 518.757 1274.28Z" fill="white" fill-opacity="0.5"/>
<path d="M488.535 1279.88C498.363 1263.33 507.7 1247.55 516.791 1233.55C520.968 1226.93 525.882 1219.04 531.042 1210.64C565.441 1154.89 617.285 1070.63 675.764 1070.63C676.255 1070.63 676.746 1070.63 677.238 1070.63C735.962 1072.16 776.995 1156.67 804.023 1212.42C807.708 1220.06 811.148 1227.44 814.588 1233.81C821.714 1248.06 829.085 1264.35 836.702 1281.41C860.441 1334.08 886.754 1392.81 924.32 1425.65C925.256 1426.47 924.633 1428.04 923.39 1428.04V1428.04C923.072 1428.04 922.814 1427.92 922.574 1427.72C884.443 1394.56 858.002 1335.71 834.49 1282.68C826.873 1265.63 819.502 1249.33 812.377 1235.08C809.183 1228.71 805.497 1221.33 801.811 1213.7C775.029 1158.45 734.488 1074.7 677.238 1073.43C676.746 1073.43 676.255 1073.43 675.764 1073.43C618.514 1073.43 567.161 1156.67 533.008 1212.17C527.848 1220.57 522.934 1228.46 518.757 1235.08C509.666 1249.08 500.329 1264.86 490.5 1281.41C458.646 1334.72 423.37 1393.86 379.069 1428.01C378.831 1428.19 378.565 1428.29 378.265 1428.29V1428.29C376.944 1428.29 376.357 1426.59 377.408 1425.79C421.533 1392.19 456.903 1333.01 488.535 1279.88Z" fill="white" fill-opacity="0.5"/>
<path d="M150.687 1283.95C119.237 1233.55 89.752 1185.95 61.0043 1166.09C42.594 1153.21 23.9511 1148.77 5.75467 1149.94C4.94161 1150 4.24595 1149.26 4.24595 1148.44V1148.44C4.24595 1147.72 4.80466 1147.21 5.5301 1147.16C24.2781 1145.94 43.2609 1150.61 62.4785 1163.8C91.472 1183.91 121.203 1231.77 152.653 1282.43C186.122 1336.42 222.382 1394.51 262.111 1425.75C263.162 1426.58 262.624 1428.29 261.288 1428.29V1428.29C260.977 1428.29 260.634 1428.19 260.39 1428C220.487 1396.36 184.244 1338.01 150.687 1283.95Z" fill="white" fill-opacity="0.5"/>
<path d="M1121.97 1347.09C1126.64 1342 1130.81 1336.9 1134.99 1332.58C1156.12 1309.16 1177.01 1283.7 1197.15 1259.26C1240.64 1206.31 1285.85 1151.33 1338.93 1109.32C1375.05 1080.81 1403.79 1070.12 1429.59 1075.72C1456.37 1081.58 1480.21 1104.74 1506.5 1151.07C1525.17 1184.17 1539.67 1222.35 1553.67 1259.26C1561.26 1279.54 1569.09 1300.07 1577.64 1319.85C1577.72 1320.02 1577.75 1320.21 1577.75 1320.39V1320.39C1577.75 1321.84 1575.79 1322.24 1575.22 1320.91C1566.68 1301.05 1559.05 1280.45 1551.22 1260.28C1537.21 1223.37 1522.96 1185.44 1504.29 1152.6C1478.24 1107.03 1455.15 1084.12 1428.86 1078.52C1403.79 1073.18 1375.54 1083.61 1340.16 1111.61C1287.33 1153.36 1242.36 1208.09 1198.87 1261.04C1178.73 1285.48 1157.84 1310.94 1136.71 1334.61C1132.78 1339.19 1128.36 1344.03 1123.69 1349.12C1101.41 1374.48 1073.29 1406.41 1042.71 1428.04C1042.48 1428.21 1042.19 1428.29 1041.91 1428.29V1428.29C1040.56 1428.29 1040.04 1426.53 1041.14 1425.76C1071.66 1404.34 1099.76 1372.54 1121.97 1347.09Z" fill="white" fill-opacity="0.5"/>
<path d="M1506.5 1110.85C1479.23 1064.01 1455.15 1040.59 1428.61 1035.24C1403.79 1030.15 1376.03 1040.59 1341.88 1068.34C1290.28 1109.83 1246.79 1164.56 1204.77 1217.26C1185.36 1241.7 1165.21 1266.9 1144.57 1290.32C1140.89 1294.64 1136.96 1299.23 1132.78 1304.06C1089.04 1354.98 1023.19 1431.6 956.852 1400.03C905.008 1375.34 869.872 1307.12 839.159 1247.04C830.805 1230.75 822.696 1215.22 814.834 1201.47C811.394 1195.36 807.462 1188.49 803.531 1181.11C774.538 1128.41 730.802 1048.99 673.061 1047.97C672.569 1047.97 672.324 1047.97 671.832 1047.97C614.828 1047.97 563.967 1124.6 530.059 1175.51C525.145 1182.89 520.477 1190.02 516.3 1196.13C507.454 1208.86 498.363 1223.37 488.535 1238.64C453.153 1294.39 408.926 1363.89 355.607 1386.8C271.821 1422.94 209.166 1324.94 153.882 1238.64C122.185 1189.26 92.4548 1142.67 61.0043 1121.8C42.3138 1109.38 23.8569 1104.96 5.63376 1106.4C4.88917 1106.46 4.24595 1105.87 4.24595 1105.12V1105.12C4.24595 1104.47 4.74285 1103.93 5.39411 1103.88C23.9599 1102.37 43.2143 1106.78 62.2328 1119.51C94.1748 1140.89 124.151 1187.47 155.847 1237.11C213.343 1326.72 272.558 1419.38 354.133 1384.25C406.714 1361.6 450.45 1292.35 485.832 1236.86C495.66 1221.59 504.751 1206.82 513.597 1194.09C517.774 1187.98 522.442 1181.11 527.356 1173.73C561.755 1122.05 613.845 1043.9 672.569 1044.92C731.785 1046.19 776.012 1126.38 805.251 1179.58C809.182 1186.96 813.114 1193.84 816.554 1199.95C824.416 1213.69 832.525 1229.22 840.879 1245.51C871.592 1305.34 906.482 1373.05 957.344 1397.23C1021.96 1428.04 1087.08 1352.18 1130.32 1301.77C1134.5 1296.94 1138.43 1292.35 1142.12 1288.03C1162.75 1264.61 1182.66 1239.4 1202.31 1214.97C1244.58 1162.02 1288.07 1107.54 1339.91 1065.79C1368.9 1042.37 1393.47 1030.92 1415.83 1030.92C1420.26 1030.92 1424.43 1031.43 1428.61 1032.19C1455.88 1037.79 1480.45 1061.46 1508.22 1109.07C1527.88 1142.67 1543.11 1181.36 1557.85 1219.04C1564.21 1235 1570.57 1251.21 1577.16 1267.17C1577.23 1267.33 1577.26 1267.5 1577.26 1267.68V1267.68C1577.26 1269.09 1575.33 1269.48 1574.78 1268.17C1568.09 1252.25 1561.74 1236.18 1555.39 1220.31C1541.14 1182.89 1525.91 1144.2 1506.5 1110.85Z" fill="white" fill-opacity="0.5"/>
<path d="M1508.96 1069.61C1479.96 1020.99 1454.9 997.061 1427.87 991.97C1403.55 987.388 1375.78 998.079 1343.6 1024.81C1293.47 1066.3 1251.7 1120.52 1211.16 1172.96C1192.49 1197.15 1173.07 1222.35 1153.17 1245.77C1149.73 1249.59 1146.29 1253.92 1142.85 1258.24C1098.13 1311.7 1037.2 1384.76 969.138 1356C916.065 1333.59 877.735 1268.94 843.827 1212.17C834.49 1196.64 825.89 1182.13 817.291 1168.89C813.359 1163.04 809.428 1156.67 805.251 1150.05C771.835 1097.61 726.133 1025.83 667.164 1024.81C609.668 1024.05 560.527 1091 524.654 1140.13C520.231 1146.24 516.054 1152.09 511.877 1157.44C503.277 1168.89 494.186 1181.87 484.603 1195.37C447.501 1248.82 405.24 1309.41 353.15 1329.52C269.61 1361.6 211.623 1274.79 155.356 1191.04C123.659 1143.44 93.4375 1098.63 60.5127 1077.76C41.8254 1065.84 23.3716 1062.16 5.37923 1063.63C4.63957 1063.69 4.0001 1063.11 4.0001 1062.37V1062.37C4.0001 1061.71 4.50387 1061.17 5.15746 1061.12C7.96586 1060.9 10.7743 1060.7 13.5827 1060.7C29.3079 1060.7 45.5246 1065.03 61.7413 1075.21C95.4032 1096.34 125.625 1141.4 157.567 1189.26C213.097 1272.5 270.838 1358.29 352.413 1326.98C403.766 1307.12 445.536 1247.04 482.638 1193.84C492.22 1180.09 501.066 1167.11 509.911 1155.65C513.842 1150.31 518.265 1144.45 522.688 1138.6C558.807 1089.47 607.948 1022.26 666.181 1022.26C666.672 1022.26 666.918 1022.26 667.409 1022.26C727.608 1023.28 773.801 1095.83 807.462 1148.78C811.639 1155.4 815.816 1161.76 819.502 1167.62C828.102 1180.6 836.947 1195.37 846.038 1210.89C879.7 1267.41 917.785 1331.56 970.121 1353.7C1036.46 1381.71 1096.91 1309.41 1141.13 1256.72C1144.82 1252.39 1148.26 1248.32 1151.45 1244.24C1171.35 1220.82 1190.52 1195.88 1209.19 1171.69C1249.74 1119 1291.51 1064.78 1341.88 1023.28C1369.89 1000.12 1394.21 988.915 1416.32 988.915C1420.26 988.915 1424.19 989.17 1428.12 989.933C1455.88 995.279 1481.44 1019.72 1510.92 1068.85C1531.32 1102.96 1547.53 1142.42 1563.26 1180.6C1567.89 1191.72 1572.53 1203.09 1577.4 1214.47C1577.47 1214.63 1577.51 1214.81 1577.51 1214.99V1214.99C1577.51 1216.4 1575.58 1216.79 1575.03 1215.48C1570.27 1204.2 1565.66 1192.95 1561.05 1181.87C1545.57 1142.93 1529.35 1103.47 1508.96 1069.61Z" fill="white" fill-opacity="0.5"/>
<path d="M1511.41 1028.12C1480.45 977.458 1455.15 953.529 1427.38 948.693C1403.06 944.365 1376.27 955.057 1345.32 981.277C1296.67 1022.52 1256.37 1076.48 1217.55 1128.67C1199.61 1152.85 1180.94 1177.8 1161.77 1200.97C1158.82 1204.53 1155.88 1208.09 1152.93 1211.91C1109.68 1265.12 1050.71 1337.67 980.932 1311.45C926.876 1291.08 885.352 1230.24 848.741 1176.27C838.667 1161.51 829.33 1147.76 819.993 1135.29C816.062 1129.94 811.639 1124.09 807.462 1117.98C771.589 1068.59 722.448 1001.13 662.249 1000.11C587.554 998.842 537.43 1069.87 488.78 1138.34C448.73 1194.86 407.451 1253.41 351.921 1272.24C268.381 1300.5 212.114 1220.31 157.567 1142.42C125.625 1096.59 95.1574 1053.57 60.5127 1032.95C41.6077 1021.8 23.1688 1018.37 5.42309 1020.08C4.66358 1020.15 4.0001 1019.55 4.0001 1018.79V1018.79C4.0001 1018.15 4.4714 1017.61 5.10549 1017.53C8.42263 1017.12 11.7398 1016.92 15.0569 1016.92C30.2908 1016.92 46.016 1020.99 61.7413 1030.15C96.8774 1051.03 127.345 1094.56 159.533 1140.38C213.588 1217.51 269.364 1296.94 350.939 1269.19C405.486 1250.61 446.764 1192.56 486.569 1136.31C534.973 1067.83 585.097 997.06 660.284 997.06C661.021 997.06 661.512 997.06 662.249 997.06C689.523 997.569 716.551 1010.81 745.053 1038.04C769.378 1061.21 790.754 1090.48 809.428 1116.2C813.851 1122.31 818.028 1127.91 821.959 1133.51C831.296 1145.98 840.633 1159.98 850.707 1174.49C887.071 1227.95 928.596 1288.54 981.669 1308.65C1049.73 1334.36 1108.21 1262.32 1150.72 1209.88C1153.66 1206.06 1156.61 1202.49 1159.56 1198.93C1178.73 1175.76 1197.15 1150.82 1215.09 1126.63C1254.16 1074.19 1294.45 1020.23 1343.35 978.731C1370.38 955.82 1394.46 944.62 1416.32 944.62C1420.01 944.62 1423.7 944.874 1427.38 945.638C1456.13 950.729 1481.68 974.913 1513.13 1026.33C1534.51 1061.21 1551.46 1101.18 1567.93 1140.12C1570.84 1147.17 1573.99 1154.21 1576.91 1161C1576.98 1161.17 1577.02 1161.36 1577.02 1161.54V1161.54C1577.02 1162.98 1575.05 1163.38 1574.48 1162.06C1571.48 1155.1 1568.6 1148.17 1565.71 1141.4C1549.74 1102.7 1532.79 1062.74 1511.41 1028.12Z" fill="white" fill-opacity="0.5"/>
<path d="M1513.13 986.115C1480.95 934.184 1455.15 910.001 1426.89 905.419C1402.81 901.346 1376.52 912.037 1346.3 938.003C1298.63 978.988 1259.81 1032.7 1222.22 1084.89C1204.77 1109.07 1186.83 1133.76 1168.41 1156.93C1165.95 1159.98 1163.49 1163.04 1160.79 1166.35C1118.53 1219.3 1060.79 1292.1 990.023 1267.41C930.316 1246.53 885.843 1183.4 842.844 1122.05C791.246 1048.48 737.927 972.624 658.318 971.351C585.835 970.078 535.71 1034.48 487.06 1096.6C446.764 1148.27 405.24 1201.48 350.693 1218.28C267.644 1243.99 212.36 1168.38 158.796 1095.07C126.608 1051.03 96.1403 1009.28 60.5127 988.916C41.6596 978.284 23.2701 974.857 5.56922 977.001C4.73928 977.101 4.0001 976.361 4.0001 975.525V975.525C4.0001 974.83 4.51867 974.341 5.20984 974.265C23.5014 972.261 42.2685 975.666 61.7413 986.625C97.8602 1007.24 128.574 1049.25 161.007 1093.54C214.08 1166.09 268.627 1241.19 350.201 1215.73C404.011 1198.93 445.29 1145.98 485.095 1094.81C533.99 1032.19 584.606 967.278 658.318 968.551C739.156 969.823 792.966 1046.45 844.81 1120.53C887.563 1181.37 931.545 1244.24 990.514 1264.86C1059.56 1289.05 1116.81 1217.26 1158.58 1164.82C1161.03 1161.51 1163.74 1158.45 1166.19 1155.4C1184.62 1132.23 1202.56 1107.54 1220 1083.36C1257.84 1031.17 1296.67 977.206 1344.58 935.966C1371.11 913.056 1394.7 901.855 1416.57 901.855C1420.01 901.855 1423.7 902.109 1427.14 902.618C1456.13 907.455 1482.42 932.148 1515.1 984.588C1536.97 1019.72 1554.9 1060.45 1572.1 1099.65C1573.79 1103.65 1575.71 1107.64 1577.41 1111.64C1577.48 1111.79 1577.51 1111.95 1577.51 1112.11V1112.11C1577.51 1113.45 1575.63 1113.85 1575.09 1112.62C1573.35 1108.66 1571.56 1104.73 1569.89 1100.92C1552.69 1061.72 1535 1021.25 1513.13 986.115Z" fill="white" fill-opacity="0.5"/>
<path d="M1513.38 943.093C1480.7 890.907 1454.66 866.724 1426.4 861.887C1402.32 857.814 1376.27 868.506 1346.3 894.471C1299.12 935.202 1261.04 989.169 1224.18 1041.1C1207.23 1065.03 1189.54 1089.98 1171.35 1112.89C1169.14 1115.69 1166.93 1118.49 1164.72 1121.29C1122.95 1174.49 1065.7 1247.55 994.446 1222.6C940.144 1203.51 894.934 1147.76 855.13 1098.38C843.827 1084.38 833.262 1071.39 822.696 1059.43C817.782 1053.83 812.868 1047.97 807.463 1041.86C766.675 994.006 715.814 934.183 657.09 933.42C586.326 932.147 535.219 994.006 485.832 1053.57C445.29 1102.45 403.52 1153.11 350.693 1169.65C268.381 1195.62 212.606 1121.29 158.796 1049.5C126.608 1006.48 96.1404 966.004 60.7586 945.893C41.9575 935.291 23.6175 931.853 5.96178 933.73C5.05 933.826 4.24595 933.118 4.24595 932.202V932.202C4.24595 931.441 4.80714 930.795 5.5622 930.702C8.76016 930.308 11.8135 930.11 15.0571 930.11C30.2909 930.11 45.7705 933.929 61.9871 943.093C97.8604 963.458 128.574 1004.19 160.761 1047.46C214.08 1118.49 269.118 1192.06 349.956 1166.85C402.046 1150.56 443.57 1100.16 483.866 1051.54C533.253 991.969 584.115 930.365 654.878 930.365C655.616 930.365 656.107 930.365 656.844 930.365C716.551 931.383 767.904 991.46 809.183 1039.83C814.342 1045.94 819.502 1051.79 824.416 1057.39C834.982 1069.36 845.547 1082.59 856.85 1096.59C896.409 1145.73 941.373 1201.22 994.937 1220.06C1064.47 1244.5 1121.23 1172.2 1162.51 1119.51C1164.72 1116.71 1166.93 1113.91 1169.14 1111.11C1187.33 1088.19 1205.02 1063.25 1221.97 1039.32C1259.07 987.133 1297.16 933.42 1344.58 892.18C1370.87 869.27 1394.7 858.069 1416.57 858.069C1420.01 858.069 1423.45 858.323 1426.89 858.832C1455.88 863.669 1482.42 888.362 1515.59 941.057C1537.95 976.441 1556.13 1017.43 1573.58 1056.88C1574.77 1059.85 1576.19 1062.81 1577.4 1065.54C1577.47 1065.71 1577.51 1065.88 1577.51 1066.06V1066.06C1577.51 1067.48 1575.59 1067.91 1575.01 1066.61C1573.73 1063.72 1572.47 1060.86 1571.12 1057.9C1553.68 1019.21 1535.74 978.477 1513.38 943.093Z" fill="white" fill-opacity="0.5"/>
<path d="M1513.62 900.327C1480.7 847.887 1454.66 823.449 1426.15 818.867C1402.07 814.794 1376.03 825.74 1346.05 851.706C1299.12 892.69 1261.28 946.658 1224.92 998.843C1207.97 1023.03 1190.52 1047.97 1172.58 1071.14L1166.44 1079.03C1124.92 1132.74 1067.91 1206.31 996.411 1181.62C941.373 1162.53 895.18 1105.76 854.393 1055.36C842.599 1040.85 831.542 1027.1 820.485 1014.63C815.079 1008.77 809.674 1002.15 804.023 995.534C762.744 947.422 711.391 887.599 652.421 886.326C581.166 884.799 531.779 947.676 484.112 1008.52C444.799 1058.67 404.011 1110.34 351.184 1127.14C267.644 1153.36 212.606 1077.76 159.287 1004.19C127.1 959.895 96.8775 918.147 61.0043 897.782C41.91 886.901 23.5112 883.708 5.80804 885.634C4.97805 885.724 4.24595 884.981 4.24595 884.146V884.146C4.24595 883.446 4.76858 882.952 5.46517 882.876C23.7539 880.874 42.5231 884.284 62.2328 895.491C98.5975 916.11 129.065 958.113 161.253 1002.66C214.08 1075.21 268.627 1150.31 350.447 1124.6C402.783 1108.05 443.079 1056.63 482.146 1006.99C529.813 946.403 578.955 883.781 650.21 883.781C650.947 883.781 651.93 883.781 652.667 883.781C712.62 885.054 764.464 945.385 805.988 993.752C811.885 1000.63 817.291 1006.99 822.451 1012.84C833.507 1025.32 844.564 1039.06 856.358 1053.57C896.9 1103.47 942.847 1160.24 997.394 1179.07C1067.17 1203 1123.44 1130.45 1164.72 1077.25L1170.86 1069.36C1188.8 1046.19 1206.25 1021.5 1223.2 997.316C1259.81 944.876 1297.65 890.908 1344.82 849.669C1371.11 826.758 1394.7 815.303 1416.57 815.303C1420.01 815.303 1423.45 815.558 1426.64 816.067C1463.25 822.176 1492.25 861.379 1515.84 898.8C1538.2 934.439 1556.62 975.678 1574.31 1015.39C1575.51 1017.86 1576.7 1020.57 1577.67 1023.05C1577.72 1023.2 1577.75 1023.36 1577.75 1023.52V1023.52C1577.75 1024.94 1575.81 1025.37 1575.22 1024.08C1574.1 1021.6 1572.98 1019.13 1571.86 1016.66C1554.17 976.696 1535.98 935.712 1513.62 900.327Z" fill="white" fill-opacity="0.5"/>
<path d="M1514.36 858.323C1490.77 820.647 1461.78 781.19 1425.91 775.335C1402.07 771.517 1376.03 782.463 1346.79 808.428C1300.35 849.668 1263.25 904.144 1227.38 956.584C1210.91 980.768 1193.71 1005.97 1176.02 1029.14L1170.37 1036.52C1129.34 1090.74 1073.07 1165.07 1001.08 1140.12C944.076 1120.27 895.426 1061.21 852.673 1009.02C839.896 993.496 828.102 978.986 816.308 966.003C810.411 959.385 804.023 952.002 797.388 944.365C754.39 894.725 700.826 832.612 641.119 832.103C570.109 831.339 523.671 896.507 478.706 959.385C441.605 1011.57 403.274 1065.28 350.693 1083.1C266.907 1111.36 211.377 1030.92 157.813 953.021C126.117 906.945 96.1404 863.669 61.4957 842.795C42.6303 831.414 23.997 827.968 5.8213 830.12C4.98712 830.219 4.24594 829.475 4.24594 828.635V828.635C4.24594 827.941 4.7594 827.45 5.4485 827.367C23.9878 825.119 43.0029 828.538 62.7242 840.249C98.1061 861.378 128.082 904.908 160.024 951.239C213.097 1028.37 268.135 1108.05 350.202 1080.3C401.8 1062.99 439.885 1009.28 476.741 957.603C521.705 894.471 568.144 829.048 639.89 829.048C640.382 829.048 640.873 829.048 641.364 829.048C702.054 829.812 756.11 892.18 799.354 942.329C805.988 949.966 812.131 957.348 818.274 963.967C830.068 977.204 842.107 991.714 854.884 1007.24C897.391 1059.17 945.796 1117.72 1002.31 1137.58C1072.58 1162.02 1128.36 1088.7 1168.9 1034.99L1174.55 1027.61C1192.24 1004.44 1209.44 979.241 1225.9 955.057C1261.77 902.362 1299.12 847.886 1345.56 806.392C1371.61 783.227 1394.95 771.771 1416.82 771.771C1420.01 771.771 1423.45 772.026 1426.64 772.535C1447.28 775.844 1474.07 788.318 1516.82 856.541C1539.42 892.689 1558.1 934.437 1576.03 974.658C1576.74 976.121 1577.45 977.583 1577.94 979.045C1577.98 979.174 1578 979.302 1578 979.439V979.439C1578 980.853 1576.03 981.289 1575.44 980.005C1574.82 978.667 1574.2 977.322 1573.58 975.931C1555.39 935.965 1536.72 894.471 1514.36 858.323Z" fill="white" fill-opacity="0.5"/>
<path d="M1515.34 817.085C1489.79 776.355 1461.53 737.916 1425.66 732.316C1402.07 728.752 1376.52 739.698 1347.77 765.918C1302.07 807.666 1265.71 862.398 1230.82 915.347C1214.6 939.785 1197.89 965.241 1180.69 988.661L1174.79 996.553C1134.01 1052.3 1077.99 1128.42 1006.73 1100.16C946.041 1075.98 894.689 1015.39 849.478 961.677C835.965 945.64 823.188 930.621 810.411 916.62C803.777 909.237 796.406 901.091 788.789 892.182C745.544 842.542 686.575 774.828 626.131 774.828C625.885 774.828 625.885 774.828 625.639 774.828C554.876 775.082 513.105 843.051 472.564 908.728C438.41 964.223 403.029 1021.75 349.956 1039.32C265.433 1067.58 210.149 982.552 156.83 900.073C125.625 851.961 96.1404 806.394 61.9871 784.756C42.9341 772.665 24.1119 768.945 5.96809 771.279C5.06009 771.395 4.24594 770.695 4.24594 769.78V769.78C4.24594 769.027 4.80452 768.39 5.55225 768.304C9.04813 767.901 12.544 767.7 16.0399 767.7C31.5194 767.7 47.2447 772.028 63.4614 782.465C98.1061 804.612 127.837 850.433 159.041 898.8C211.868 980.261 266.661 1064.52 349.464 1036.77C401.554 1019.46 436.69 962.441 470.598 907.201C511.385 841.014 553.647 772.282 625.885 772.028C626.131 772.028 626.131 772.028 626.376 772.028C687.803 772.028 747.264 840.251 790.754 890.145C798.371 898.8 805.497 907.201 812.377 914.583C825.153 928.584 837.93 943.603 851.444 959.641C896.654 1012.84 947.761 1073.43 1007.71 1097.36C1077.25 1125.11 1132.53 1049.76 1172.83 994.771L1178.73 986.879C1195.93 963.459 1212.63 938.257 1228.85 913.819C1263.99 860.616 1300.11 805.884 1346.3 763.881C1371.85 740.462 1395.19 729.006 1417.06 729.006C1420.26 729.006 1423.2 729.261 1426.4 729.77C1463.25 735.37 1492.25 774.318 1517.8 815.812C1540.85 852.654 1559.75 894.82 1577.9 935.732C1577.96 935.887 1578 936.054 1578 936.223C1578 936.407 1578 936.592 1578 936.779C1578 937.986 1576.25 938.355 1575.79 937.239V937.239C1557.11 896.254 1538.2 853.997 1515.34 817.085Z" fill="white" fill-opacity="0.5"/>
<path d="M1516.33 776.099C1502.76 754.279 1488.29 733.153 1472.51 717.117C1471.65 716.243 1472.21 714.749 1473.44 714.749V714.749C1473.8 714.749 1474.21 714.895 1474.47 715.158C1490.28 731.398 1504.89 752.609 1518.54 774.571C1540.64 810.301 1559.14 851.004 1577.12 890.536C1577.54 891.452 1577.75 892.446 1577.75 893.453V893.453C1577.75 894.98 1577.75 896.762 1577.75 898.289V898.289C1577.75 898.122 1577.72 897.956 1577.65 897.803C1558.76 856.381 1539.63 813.45 1516.33 776.099Z" fill="white" fill-opacity="0.5"/>
<path d="M1234.01 874.36C1218.28 899.053 1202.07 924.509 1185.11 948.184L1179.71 955.821C1139.66 1012.33 1084.62 1089.47 1012.63 1059.94C948.989 1033.72 894.688 970.586 846.775 914.836C832.033 897.78 818.273 881.743 804.513 866.978C797.142 859.087 789.034 849.668 780.434 839.994C734.733 788.063 672.323 717.04 610.896 717.04C610.65 717.04 610.159 717.04 609.913 717.04C539.887 718.058 501.556 789.336 464.7 858.323C433.496 916.618 401.308 976.95 349.464 996.042C265.432 1026.84 209.165 934.947 154.618 846.104C123.905 795.955 94.9112 748.606 62.7236 726.714C57.3608 723.067 51.998 720.132 46.7132 717.826C45.3844 717.246 45.7907 715.004 47.2405 715.004V715.004C47.4051 715.004 47.5682 715.035 47.7206 715.098C53.2884 717.378 58.6236 720.402 64.1979 724.168C96.8769 746.57 126.116 794.173 157.075 844.577C210.885 932.656 266.661 1023.53 348.972 993.496C399.834 974.913 431.776 915.091 462.735 857.05C498.362 790.355 535.218 721.368 601.314 715.004C607.456 715.004 613.599 715.004 619.742 715.004C679.448 721.113 738.418 788.318 782.154 838.212C790.754 847.886 798.862 857.305 806.233 865.196C819.993 880.215 833.998 896.253 848.495 913.309C896.408 968.804 950.463 1031.68 1013.61 1057.9C1083.88 1086.92 1138.18 1010.55 1177.74 954.803L1183.15 947.166C1200.1 923.491 1216.32 898.035 1232.04 873.342C1266.2 819.884 1301.58 764.389 1347.03 721.877C1349.36 719.705 1351.69 717.533 1354.02 715.578C1354.27 715.37 1354.6 715.258 1354.92 715.258V715.258C1356.2 715.258 1356.77 716.831 1355.8 717.662C1353.45 719.678 1351.04 721.73 1348.75 723.913C1303.54 765.662 1268.16 820.902 1234.01 874.36Z" fill="white" fill-opacity="0.5"/>
<path d="M1189.29 907.199L1184.13 914.581C1144.57 971.604 1090.52 1050.01 1017.79 1019.21C951.693 991.205 897.146 928.582 844.319 868.251C828.593 850.177 813.851 833.376 799.109 817.593C791.246 809.192 782.155 799.009 772.818 788.318C752.856 765.667 729.676 739.444 704.835 716.788C703.948 715.979 704.539 714.494 705.74 714.494V714.494C706.069 714.494 706.365 714.618 706.607 714.842C731.283 737.67 754.492 763.741 774.538 786.536C783.875 797.227 792.966 807.155 800.829 815.556C815.571 831.339 830.559 848.395 846.039 866.214C898.62 926.546 952.921 988.914 1018.53 1016.66C1089.53 1046.45 1142.85 969.313 1181.92 912.799L1187.08 905.417C1203.54 881.488 1219.51 856.032 1234.99 831.084C1259.45 791.548 1284.65 750.751 1314.21 714.972C1314.46 714.669 1314.85 714.494 1315.25 714.494V714.494C1316.36 714.494 1316.95 715.8 1316.24 716.663C1286.8 752.296 1261.77 792.943 1237.2 832.612C1221.72 857.559 1205.75 883.27 1189.29 907.199Z" fill="white" fill-opacity="0.5"/>
<path d="M1505.89 716.814C1505.31 715.927 1505.97 714.75 1507.02 714.75V714.75C1507.48 714.75 1507.88 714.98 1508.12 715.361C1511.92 721.267 1515.72 727.172 1519.52 733.078C1541.59 768.386 1559.98 808.511 1577.64 847.886C1577.72 848.054 1577.75 848.226 1577.75 848.41V848.41C1577.75 849.817 1575.84 850.239 1575.26 848.956C1557.61 809.743 1539.37 769.853 1517.31 734.606C1513.58 728.697 1509.66 722.585 1505.89 716.814Z" fill="white" fill-opacity="0.5"/>
<path d="M348.728 952.258C265.188 985.097 205.481 882.762 152.654 792.647C136.686 765.486 121.412 739.044 105.71 716.805C105.101 715.943 105.739 714.75 106.794 714.75V714.75C107.216 714.75 107.587 714.954 107.829 715.3C123.422 737.585 138.779 763.851 154.619 791.119C209.412 884.799 265.925 981.788 347.745 949.713C397.624 930.111 426.863 867.743 455.119 807.411C470.251 775.045 485.625 741.926 504.613 715.288C504.855 714.949 505.221 714.75 505.637 714.75V714.75C506.691 714.75 507.327 715.946 506.716 716.806C487.98 743.203 472.655 776.185 457.33 808.684C429.074 869.27 399.589 932.148 348.728 952.258Z" fill="white" fill-opacity="0.5"/>
<path d="M348.727 908.983C264.941 943.094 204.989 836.941 151.916 743.262C146.885 734.259 141.854 725.255 136.823 716.663C136.328 715.817 136.937 714.751 137.917 714.751V714.751C138.37 714.751 138.787 714.991 139.014 715.383C144.052 724.082 149.09 732.787 154.127 741.734C206.463 834.395 265.924 939.53 347.745 906.437C397.377 886.326 424.651 822.176 450.942 760.317C457.219 745.309 463.733 730.302 470.485 715.777C470.704 715.306 471.176 715.005 471.695 715.005V715.005C472.672 715.005 473.319 716.02 472.909 716.907C466.117 731.587 459.758 746.706 453.399 761.59C426.862 823.704 399.343 888.363 348.727 908.983Z" fill="white" fill-opacity="0.5"/>
<path d="M1191.75 865.451L1187.08 872.579C1148.01 930.11 1094.45 1009.28 1021.23 978.223C953.412 949.711 897.146 885.561 842.844 823.448C826.382 804.61 810.902 787.045 795.423 770.753C787.069 761.844 777.486 751.406 767.658 739.951C761.158 732.52 754.045 724.666 746.878 716.775C746.083 715.899 746.704 714.495 747.888 714.495V714.495C748.273 714.495 748.64 714.658 748.899 714.944C756.117 722.931 762.87 730.668 769.624 737.914C779.698 749.115 789.034 759.807 797.388 768.462C812.868 784.754 828.593 802.574 844.81 821.157C899.111 883.016 955.132 946.911 1022.21 975.168C1093.47 1005.21 1146.29 927.31 1185.11 870.288L1189.78 863.16C1206 839.231 1221.72 813.52 1236.71 788.573C1251.58 763.823 1266.94 738.822 1283.25 714.565C1283.5 714.203 1283.88 713.985 1284.32 713.985V713.985C1285.38 713.985 1286.02 715.171 1285.43 716.045C1269.02 740.119 1253.97 765.35 1238.92 790.1C1223.69 815.556 1208.21 841.522 1191.75 865.451Z" fill="white" fill-opacity="0.5"/>
<path d="M1533.02 714.75C1533.48 714.75 1533.91 715.003 1534.14 715.412C1549.92 743.907 1564.02 774.379 1577.64 804.609C1577.71 804.778 1577.75 804.952 1577.75 805.137V805.137C1577.75 806.55 1575.83 806.975 1575.25 805.689C1561.61 775.579 1547.67 745.171 1531.89 716.665C1531.41 715.806 1532.03 714.75 1533.02 714.75V714.75Z" fill="white" fill-opacity="0.5"/>
<path d="M1555.3 714.749C1555.81 714.749 1556.27 715.04 1556.49 715.497C1563.69 730.445 1570.67 745.633 1577.64 760.822C1577.71 760.992 1577.75 761.167 1577.75 761.354V761.354C1577.75 762.755 1575.84 763.175 1575.26 761.898C1568.46 746.816 1561.47 731.735 1554.11 716.653C1553.68 715.774 1554.32 714.749 1555.3 714.749V714.749Z" fill="white" fill-opacity="0.5"/>
<path d="M349.219 867.234C269.439 899.083 211.705 806.192 161.342 716.409C160.861 715.552 161.483 714.496 162.467 714.496V714.496C162.931 714.496 163.359 714.745 163.587 715.15C213.624 803.791 270.783 895.668 348.482 864.434C398.852 844.323 425.142 779.155 450.45 716.023C450.597 715.719 450.744 715.323 450.891 714.945C451.06 714.51 451.548 714.241 452.015 714.241V714.241C452.912 714.241 453.494 715.204 453.158 716.036C453.034 716.342 452.905 716.63 452.752 716.893C452.694 716.993 452.64 717.095 452.597 717.203C427.064 781.048 400.774 846.886 349.219 867.234Z" fill="white" fill-opacity="0.5"/>
<path d="M1192.73 822.685L1188.31 829.049C1149.24 887.089 1095.92 966.258 1022.7 935.965C954.395 907.709 894.934 839.486 842.107 779.409C825.644 760.571 810.165 742.752 794.685 726.459C791.893 723.567 788.94 720.339 785.956 717.048C785.154 716.165 785.782 714.75 786.975 714.75V714.75C787.349 714.75 787.706 714.901 787.965 715.171C791.004 718.339 793.827 721.498 796.651 724.423C812.13 740.715 827.856 758.535 844.318 777.372C896.654 837.195 956.115 905.163 1023.93 933.165C1095.18 962.695 1148.01 884.544 1186.59 827.267L1191.01 820.903C1207.23 796.974 1222.71 771.008 1237.7 746.061C1243.71 735.84 1249.96 725.619 1256.22 715.159C1256.46 714.747 1256.85 714.495 1257.33 714.495V714.495C1258.39 714.495 1259.1 715.657 1258.56 716.566C1252.34 726.851 1246.12 737.331 1239.91 747.588C1224.43 772.79 1208.95 798.501 1192.73 822.685Z" fill="white" fill-opacity="0.5"/>
<path d="M1190.27 785.265C1151.45 843.305 1098.38 922.984 1024.91 892.436C956.116 863.67 895.917 794.683 842.845 733.588C837.898 728.018 833.14 722.447 828.405 717.048C827.622 716.154 828.255 714.75 829.443 714.75V714.75C829.84 714.75 830.218 714.922 830.48 715.22C835.257 720.664 840.034 726.115 844.81 731.806C897.637 792.647 957.59 861.634 1025.9 889.89C1097.4 919.674 1149.73 841.014 1188.06 783.737L1191.99 777.882C1205.37 757.984 1218.26 736.59 1230.67 715.674C1230.91 715.259 1231.3 715.005 1231.78 715.005V715.005C1232.85 715.005 1233.56 716.165 1233.01 717.075C1220.39 738.053 1207.53 759.455 1194.21 779.664L1190.27 785.265Z" fill="white" fill-opacity="0.5"/>
<path d="M1576.88 714.75C1577.28 714.75 1577.51 715.072 1577.51 715.469C1577.51 715.557 1577.51 715.647 1577.51 715.737C1577.51 716.584 1576.54 716.805 1576.19 716.033C1576.16 715.975 1576.14 715.917 1576.11 715.859C1575.88 715.357 1576.33 714.75 1576.88 714.75V714.75Z" fill="white" fill-opacity="0.5"/>
<path d="M350.939 831.085C282.513 859.34 229.292 793.087 182.663 716.571C182.109 715.661 182.684 714.494 183.749 714.494V714.494C184.225 714.494 184.747 714.744 184.995 715.151C231.09 790.733 283.317 855.952 350.202 828.539C390.288 812.078 414.57 766.142 434.656 715.291C434.846 714.811 435.38 714.494 435.896 714.494V714.494C436.783 714.494 437.319 715.39 436.991 716.214C416.492 767.717 392.007 814.216 350.939 831.085Z" fill="white" fill-opacity="0.5"/>
<path d="M1193.22 741.225C1154.65 799.52 1102.07 879.453 1028.6 848.141C970.223 823.297 918.056 770.002 871.155 716.791C870.368 715.897 871.005 714.495 872.196 714.495V714.495C872.593 714.495 872.971 714.666 873.234 714.964C920.055 768.011 971.765 820.975 1029.58 845.596C1101.08 876.143 1153.17 797.229 1191.01 739.443L1194.7 733.842C1198.74 727.682 1202.78 721.521 1206.83 715.129C1207.08 714.735 1207.46 714.495 1207.92 714.495V714.495C1208.99 714.495 1209.7 715.666 1209.13 716.572C1205.14 723.005 1201.12 729.419 1196.91 735.624L1193.22 741.225Z" fill="white" fill-opacity="0.5"/>
<path d="M353.396 799.01C295.067 824.945 246.595 779.151 203.698 716.564C203.098 715.689 203.746 714.495 204.808 714.495V714.495C205.244 714.495 205.629 714.712 205.876 715.071C248.284 776.635 295.831 821.587 352.413 796.21C382.417 782.815 402.976 752.359 419.38 715.304C419.597 714.814 420.083 714.495 420.618 714.495V714.495C421.593 714.495 422.245 715.498 421.85 716.389C405.037 754.225 384.09 785.238 353.396 799.01Z" fill="white" fill-opacity="0.5"/>
<path d="M356.344 768.717C309.863 794.551 266.96 765.277 227.164 716.929C226.449 716.061 227.04 714.75 228.165 714.75V714.75C228.566 714.75 228.972 714.933 229.226 715.243C268.181 762.803 310.306 791.033 355.116 766.171C373.365 756.088 388.481 737.766 401.181 715.409C401.412 715.003 401.844 714.75 402.311 714.75V714.75C403.297 714.75 403.92 715.806 403.438 716.666C390.625 739.48 375.229 758.315 356.344 768.717Z" fill="white" fill-opacity="0.5"/>
<path d="M1033.02 804.101C991.365 785.89 952.776 753.499 917.023 716.99C916.205 716.155 916.797 714.75 917.966 714.75V714.75C918.322 714.75 918.663 714.893 918.912 715.147C954.429 751.387 992.632 783.548 1034 801.556C1097.9 829.456 1145.7 769.662 1181.77 715.342C1182.02 714.97 1182.41 714.75 1182.86 714.75V714.75C1183.92 714.75 1184.58 715.925 1183.99 716.807C1147.29 771.782 1098.79 832.764 1033.02 804.101Z" fill="white" fill-opacity="0.5"/>
<path d="M1037.2 759.808C1013.98 749.358 991.65 734.5 970.219 717.227C969.192 716.4 969.779 714.751 971.098 714.751V714.751C971.419 714.751 971.731 714.862 971.981 715.064C993.238 732.239 1015.23 746.889 1038.43 757.263C1081.51 776.539 1121.67 755.129 1158.66 715.19C1158.92 714.912 1159.28 714.751 1159.66 714.751V714.751C1160.85 714.751 1161.46 716.16 1160.65 717.023C1122.66 757.582 1081.59 779.553 1037.2 759.808Z" fill="white" fill-opacity="0.5"/>
<path d="M359.047 737.916C323.653 759.223 289.657 746.53 257.057 717.203C256.093 716.336 256.688 714.751 257.984 714.751V714.751C258.337 714.751 258.7 714.884 258.962 715.119C290.778 743.622 323.811 755.902 357.818 735.37C366.258 730.373 373.988 723.415 381.008 715.217C381.261 714.922 381.653 714.751 382.042 714.751V714.751C383.164 714.751 383.749 716.057 383.015 716.906C375.685 725.376 367.889 732.513 359.047 737.916Z" fill="white" fill-opacity="0.5"/>
<path d="M315.046 714.986C314.893 714.963 314.91 714.751 315.065 714.751V714.751C318.241 714.751 321.417 714.751 324.593 714.751C325.759 714.751 325.813 715.706 324.648 715.706C321.447 715.706 318.247 715.466 315.046 714.986Z" fill="white" fill-opacity="0.5"/>
<path d="M1040.39 715.769V715.769C1039.72 715.418 1039.92 714.496 1040.68 714.496C1041.88 714.496 1043.1 714.496 1044.25 714.496C1044.46 714.496 1044.67 714.538 1044.86 714.617C1065.05 722.848 1084.52 722.104 1103.26 714.61C1103.44 714.535 1103.65 714.496 1103.85 714.496V714.496C1105.51 714.496 1105.97 716.638 1104.43 717.257C1084.13 725.408 1062.67 725.923 1040.39 715.769Z" fill="white" fill-opacity="0.5"/>
</g>
</g>
<defs>
<filter id="filter0_d_0_476" x="0" y="0" width="1582" height="1436.55" filterUnits="userSpaceOnUse" color-interpolation-filters="sRGB">
<feFlood flood-opacity="0" result="BackgroundImageFix"/>
<feColorMatrix in="SourceAlpha" type="matrix" values="0 0 0 0 0 0 0 0 0 0 0 0 0 0 0 0 0 0 127 0" result="hardAlpha"/>
<feOffset dy="4"/>
<feGaussianBlur stdDeviation="2"/>
<feComposite in2="hardAlpha" operator="out"/>
<feColorMatrix type="matrix" values="0 0 0 0 0 0 0 0 0 0 0 0 0 0 0 0 0 0 0.25 0"/>
<feBlend mode="normal" in2="BackgroundImageFix" result="effect1_dropShadow_0_476"/>
<feBlend mode="normal" in="SourceGraphic" in2="effect1_dropShadow_0_476" result="shape"/>
</filter>
<linearGradient id="paint0_linear_0_476" x1="790.951" y1="0" x2="790.951" y2="714.204" gradientUnits="userSpaceOnUse">
<stop stop-color="#B5F8F4"/>
<stop offset="1" stop-color="#E1F1EC"/>
</linearGradient>
<linearGradient id="paint1_linear_0_476" x1="1070.33" y1="-145.922" x2="1602.64" y2="367.866" gradientUnits="userSpaceOnUse">
<stop stop-color="#B5F8F4"/>
<stop offset="1" stop-color="#92EFEA"/>
</linearGradient>
<linearGradient id="paint2_linear_0_476" x1="-49.7929" y1="252.668" x2="373.012" y2="660.763" gradientUnits="userSpaceOnUse">
<stop stop-color="#92EFEA"/>
<stop offset="1" stop-color="#C2F6F6"/>
</linearGradient>
<linearGradient id="paint3_linear_0_476" x1="786.951" y1="0" x2="786.951" y2="714.204" gradientUnits="userSpaceOnUse">
<stop stop-color="#B5F8F4"/>
<stop offset="1" stop-color="#E1F1EC"/>
</linearGradient>
<linearGradient id="paint4_linear_0_476" x1="1070.33" y1="1574.47" x2="1602.64" y2="1060.68" gradientUnits="userSpaceOnUse">
<stop stop-color="#B5F8F4"/>
<stop offset="1" stop-color="#92EFEA"/>
</linearGradient>
<linearGradient id="paint5_linear_0_476" x1="-49.7929" y1="1175.88" x2="373.012" y2="767.784" gradientUnits="userSpaceOnUse">
<stop stop-color="#92EFEA"/>
<stop offset="1" stop-color="#C2F6F6"/>
</linearGradient>
</defs>
</svg>
