<svg width="16" height="16" viewBox="0 0 16 16" fill="none" xmlns="http://www.w3.org/2000/svg">
<mask id="mask0_64_2366" style="mask-type:alpha" maskUnits="userSpaceOnUse" x="0" y="0" width="16" height="16">
<rect width="15.6704" height="15.6704" fill="#D9D9D9"/>
</mask>
<g mask="url(#mask0_64_2366)">
<path d="M6.92114 10.8387L11.5243 6.23556L10.6102 5.32145L6.92114 9.01053L5.06028 7.14966L4.14617 8.06377L6.92114 10.8387ZM7.83525 14.3646C6.93202 14.3646 6.08321 14.1932 5.2888 13.8504C4.4944 13.5076 3.80338 13.0424 3.21574 12.4548C2.6281 11.8671 2.16288 11.1761 1.82009 10.3817C1.4773 9.58728 1.30591 8.73847 1.30591 7.83525C1.30591 6.93202 1.4773 6.08321 1.82009 5.2888C2.16288 4.4944 2.6281 3.80338 3.21574 3.21574C3.80338 2.6281 4.4944 2.16288 5.2888 1.82009C6.08321 1.4773 6.93202 1.30591 7.83525 1.30591C8.73847 1.30591 9.58728 1.4773 10.3817 1.82009C11.1761 2.16288 11.8671 2.6281 12.4548 3.21574C13.0424 3.80338 13.5076 4.4944 13.8504 5.2888C14.1932 6.08321 14.3646 6.93202 14.3646 7.83525C14.3646 8.73847 14.1932 9.58728 13.8504 10.3817C13.5076 11.1761 13.0424 11.8671 12.4548 12.4548C11.8671 13.0424 11.1761 13.5076 10.3817 13.8504C9.58728 14.1932 8.73847 14.3646 7.83525 14.3646Z" fill="#4CAF50"/>
</g>
</svg>
