<svg xmlns="http://www.w3.org/2000/svg" width="20" height="20" viewBox="0 0 20 20" fill="none">
  <mask id="mask0_14_2966" style="mask-type:alpha" maskUnits="userSpaceOnUse" x="0" y="0" width="20" height="20">
    <rect width="20" height="20" fill="#E96860"/>
  </mask>
  <g mask="url(#mask0_14_2966)">
    <path d="M7.00008 14.1667L10.0001 11.1667L13.0001 14.1667L14.1667 13L11.1667 10L14.1667 7.00001L13.0001 5.83334L10.0001 8.83334L7.00008 5.83334L5.83342 7.00001L8.83342 10L5.83342 13L7.00008 14.1667ZM10.0001 18.3333C8.8473 18.3333 7.76397 18.1146 6.75008 17.6771C5.73619 17.2396 4.85425 16.6458 4.10425 15.8958C3.35425 15.1458 2.7605 14.2639 2.323 13.25C1.8855 12.2361 1.66675 11.1528 1.66675 10C1.66675 8.84723 1.8855 7.76389 2.323 6.75001C2.7605 5.73612 3.35425 4.85417 4.10425 4.10417C4.85425 3.35417 5.73619 2.76042 6.75008 2.32292C7.76397 1.88542 8.8473 1.66667 10.0001 1.66667C11.1529 1.66667 12.2362 1.88542 13.2501 2.32292C14.264 2.76042 15.1459 3.35417 15.8959 4.10417C16.6459 4.85417 17.2397 5.73612 17.6772 6.75001C18.1147 7.76389 18.3334 8.84723 18.3334 10C18.3334 11.1528 18.1147 12.2361 17.6772 13.25C17.2397 14.2639 16.6459 15.1458 15.8959 15.8958C15.1459 16.6458 14.264 17.2396 13.2501 17.6771C12.2362 18.1146 11.1529 18.3333 10.0001 18.3333Z" fill="#E96860"/>
  </g>
</svg>